<svg id="container" width="638.01171875" xmlns="http://www.w3.org/2000/svg" class="flowchart" height="1333.015625" viewBox="0 0 638.01171875 1333.015625" role="graphics-document document" aria-roledescription="flowchart-v2"><style>#container{font-family:"trebuchet ms",verdana,arial,sans-serif;font-size:16px;fill:#000000;}@keyframes edge-animation-frame{from{stroke-dashoffset:0;}}@keyframes dash{to{stroke-dashoffset:0;}}#container .edge-animation-slow{stroke-dasharray:9,5!important;stroke-dashoffset:900;animation:dash 50s linear infinite;stroke-linecap:round;}#container .edge-animation-fast{stroke-dasharray:9,5!important;stroke-dashoffset:900;animation:dash 20s linear infinite;stroke-linecap:round;}#container .error-icon{fill:#552222;}#container .error-text{fill:#552222;stroke:#552222;}#container .edge-thickness-normal{stroke-width:1px;}#container .edge-thickness-thick{stroke-width:3.5px;}#container .edge-pattern-solid{stroke-dasharray:0;}#container .edge-thickness-invisible{stroke-width:0;fill:none;}#container .edge-pattern-dashed{stroke-dasharray:3;}#container .edge-pattern-dotted{stroke-dasharray:2;}#container .marker{fill:#666;stroke:#666;}#container .marker.cross{stroke:#666;}#container svg{font-family:"trebuchet ms",verdana,arial,sans-serif;font-size:16px;}#container p{margin:0;}#container .label{font-family:"trebuchet ms",verdana,arial,sans-serif;color:#000000;}#container .cluster-label text{fill:#333;}#container .cluster-label span{color:#333;}#container .cluster-label span p{background-color:transparent;}#container .label text,#container span{fill:#000000;color:#000000;}#container .node rect,#container .node circle,#container .node ellipse,#container .node polygon,#container .node path{fill:#eee;stroke:#999;stroke-width:1px;}#container .rough-node .label text,#container .node .label text,#container .image-shape .label,#container .icon-shape .label{text-anchor:middle;}#container .node .katex path{fill:#000;stroke:#000;stroke-width:1px;}#container .rough-node .label,#container .node .label,#container .image-shape .label,#container .icon-shape .label{text-align:center;}#container .node.clickable{cursor:pointer;}#container .root .anchor path{fill:#666!important;stroke-width:0;stroke:#666;}#container .arrowheadPath{fill:#333333;}#container .edgePath .path{stroke:#666;stroke-width:2.0px;}#container .flowchart-link{stroke:#666;fill:none;}#container .edgeLabel{background-color:white;text-align:center;}#container .edgeLabel p{background-color:white;}#container .edgeLabel rect{opacity:0.5;background-color:white;fill:white;}#container .labelBkg{background-color:rgba(255, 255, 255, 0.5);}#container .cluster rect{fill:hsl(0, 0%, 98.9215686275%);stroke:#707070;stroke-width:1px;}#container .cluster text{fill:#333;}#container .cluster span{color:#333;}#container div.mermaidTooltip{position:absolute;text-align:center;max-width:200px;padding:2px;font-family:"trebuchet ms",verdana,arial,sans-serif;font-size:12px;background:hsl(-160, 0%, 93.3333333333%);border:1px solid #707070;border-radius:2px;pointer-events:none;z-index:100;}#container .flowchartTitleText{text-anchor:middle;font-size:18px;fill:#000000;}#container rect.text{fill:none;stroke-width:0;}#container .icon-shape,#container .image-shape{background-color:white;text-align:center;}#container .icon-shape p,#container .image-shape p{background-color:white;padding:2px;}#container .icon-shape rect,#container .image-shape rect{opacity:0.5;background-color:white;fill:white;}#container .label-icon{display:inline-block;height:1em;overflow:visible;vertical-align:-0.125em;}#container .node .label-icon path{fill:currentColor;stroke:revert;stroke-width:revert;}#container :root{--mermaid-font-family:"trebuchet ms",verdana,arial,sans-serif;}</style><g><marker id="container_flowchart-v2-pointEnd" class="marker flowchart-v2" viewBox="0 0 10 10" refX="5" refY="5" markerUnits="userSpaceOnUse" markerWidth="8" markerHeight="8" orient="auto"><path d="M 0 0 L 10 5 L 0 10 z" class="arrowMarkerPath" style="stroke-width: 1; stroke-dasharray: 1, 0;"></path></marker><marker id="container_flowchart-v2-pointStart" class="marker flowchart-v2" viewBox="0 0 10 10" refX="4.5" refY="5" markerUnits="userSpaceOnUse" markerWidth="8" markerHeight="8" orient="auto"><path d="M 0 5 L 10 10 L 10 0 z" class="arrowMarkerPath" style="stroke-width: 1; stroke-dasharray: 1, 0;"></path></marker><marker id="container_flowchart-v2-circleEnd" class="marker flowchart-v2" viewBox="0 0 10 10" refX="11" refY="5" markerUnits="userSpaceOnUse" markerWidth="11" markerHeight="11" orient="auto"><circle cx="5" cy="5" r="5" class="arrowMarkerPath" style="stroke-width: 1; stroke-dasharray: 1, 0;"></circle></marker><marker id="container_flowchart-v2-circleStart" class="marker flowchart-v2" viewBox="0 0 10 10" refX="-1" refY="5" markerUnits="userSpaceOnUse" markerWidth="11" markerHeight="11" orient="auto"><circle cx="5" cy="5" r="5" class="arrowMarkerPath" style="stroke-width: 1; stroke-dasharray: 1, 0;"></circle></marker><marker id="container_flowchart-v2-crossEnd" class="marker cross flowchart-v2" viewBox="0 0 11 11" refX="12" refY="5.2" markerUnits="userSpaceOnUse" markerWidth="11" markerHeight="11" orient="auto"><path d="M 1,1 l 9,9 M 10,1 l -9,9" class="arrowMarkerPath" style="stroke-width: 2; stroke-dasharray: 1, 0;"></path></marker><marker id="container_flowchart-v2-crossStart" class="marker cross flowchart-v2" viewBox="0 0 11 11" refX="-1" refY="5.2" markerUnits="userSpaceOnUse" markerWidth="11" markerHeight="11" orient="auto"><path d="M 1,1 l 9,9 M 10,1 l -9,9" class="arrowMarkerPath" style="stroke-width: 2; stroke-dasharray: 1, 0;"></path></marker><g class="root"><g class="clusters"><g class="cluster" id="P3" data-look="classic"><rect style="" x="8" y="756" width="622.01171875" height="480.015625"></rect><g class="cluster-label" transform="translate(270.998046875, 756)"><foreignObject width="96.015625" height="24"><div xmlns="http://www.w3.org/1999/xhtml" style="display: table-cell; white-space: nowrap; line-height: 1.5; max-width: 200px; text-align: center;"><span class="nodeLabel"><p>结果处理阶段</p></span></div></foreignObject></g></g><g class="cluster" id="P2" data-look="classic"><rect style="" x="187" y="394" width="258.015625" height="312"></rect><g class="cluster-label" transform="translate(268, 394)"><foreignObject width="96.015625" height="24"><div xmlns="http://www.w3.org/1999/xhtml" style="display: table-cell; white-space: nowrap; line-height: 1.5; max-width: 200px; text-align: center;"><span class="nodeLabel"><p>流式生成阶段</p></span></div></foreignObject></g></g><g class="cluster" id="P1" data-look="classic"><rect style="" x="151.0078125" y="8" width="330" height="336"></rect><g class="cluster-label" transform="translate(268, 8)"><foreignObject width="96.015625" height="24"><div xmlns="http://www.w3.org/1999/xhtml" style="display: table-cell; white-space: nowrap; line-height: 1.5; max-width: 200px; text-align: center;"><span class="nodeLabel"><p>任务创建阶段</p></span></div></foreignObject></g></g></g><g class="edgePaths"><path d="M316.008,87L316.008,112L316.008,133" id="L_A_B_0" class="edge-thickness-normal edge-pattern-solid edge-thickness-normal edge-pattern-solid flowchart-link" style=";" data-edge="true" data-et="edge" data-id="L_A_B_0" data-points="W3sieCI6MzE2LjAwNzgxMjUsInkiOjg3fSx7IngiOjMxNi4wMDc4MTI1LCJ5IjoxMTJ9LHsieCI6MzE2LjAwNzgxMjUsInkiOjEzN31d" marker-end="url(#container_flowchart-v2-pointEnd)"></path><path d="M316.008,215L316.008,240L316.008,261" id="L_B_C_0" class="edge-thickness-normal edge-pattern-solid edge-thickness-normal edge-pattern-solid flowchart-link" style=";" data-edge="true" data-et="edge" data-id="L_B_C_0" data-points="W3sieCI6MzE2LjAwNzgxMjUsInkiOjIxNX0seyJ4IjozMTYuMDA3ODEyNSwieSI6MjQwfSx7IngiOjMxNi4wMDc4MTI1LCJ5IjoyNjV9XQ==" marker-end="url(#container_flowchart-v2-pointEnd)"></path><path d="M316.008,473L316.008,498L316.008,519" id="L_D_E_0" class="edge-thickness-normal edge-pattern-solid edge-thickness-normal edge-pattern-solid flowchart-link" style=";" data-edge="true" data-et="edge" data-id="L_D_E_0" data-points="W3sieCI6MzE2LjAwNzgxMjUsInkiOjQ3M30seyJ4IjozMTYuMDA3ODEyNSwieSI6NDk4fSx7IngiOjMxNi4wMDc4MTI1LCJ5Ijo1MjN9XQ==" marker-end="url(#container_flowchart-v2-pointEnd)"></path><path d="M316.008,577L316.008,602L316.008,623" id="L_E_F_0" class="edge-thickness-normal edge-pattern-solid edge-thickness-normal edge-pattern-solid flowchart-link" style=";" data-edge="true" data-et="edge" data-id="L_E_F_0" data-points="W3sieCI6MzE2LjAwNzgxMjUsInkiOjU3N30seyJ4IjozMTYuMDA3ODEyNSwieSI6NjAyfSx7IngiOjMxNi4wMDc4MTI1LCJ5Ijo2Mjd9XQ==" marker-end="url(#container_flowchart-v2-pointEnd)"></path><path d="M316.008,859L316.008,884L316.008,905" id="L_G_H_0" class="edge-thickness-normal edge-pattern-solid edge-thickness-normal edge-pattern-solid flowchart-link" style=";" data-edge="true" data-et="edge" data-id="L_G_H_0" data-points="W3sieCI6MzE2LjAwNzgxMjUsInkiOjg1OX0seyJ4IjozMTYuMDA3ODEyNSwieSI6ODg0fSx7IngiOjMxNi4wMDc4MTI1LCJ5Ijo5MDl9XQ==" marker-end="url(#container_flowchart-v2-pointEnd)"></path><path d="M273.188,1016.196L167.004,1096.016L167.004,1141.016" id="L_H_I_0" class="edge-thickness-normal edge-pattern-solid edge-thickness-normal edge-pattern-solid flowchart-link" style=";" data-edge="true" data-et="edge" data-id="L_H_I_0" data-points="W3sieCI6MjczLjE4ODA2MDUxNjA5NTczLCJ5IjoxMDE2LjE5NTg3MzAxNjA5NTd9LHsieCI6MTY3LjAwMzkwNjI1LCJ5IjoxMDk2LjAxNTYyNX0seyJ4IjoxNjcuMDAzOTA2MjUsInkiOjExNDUuMDE1NjI1fV0=" marker-end="url(#container_flowchart-v2-pointEnd)"></path><path d="M358.828,1016.196L465.012,1096.016L465.012,1129.016" id="L_H_J_0" class="edge-thickness-normal edge-pattern-solid edge-thickness-normal edge-pattern-solid flowchart-link" style=";" data-edge="true" data-et="edge" data-id="L_H_J_0" data-points="W3sieCI6MzU4LjgyNzU2NDQ4MzkwNDI3LCJ5IjoxMDE2LjE5NTg3MzAxNjA5NTd9LHsieCI6NDY1LjAxMTcxODc1LCJ5IjoxMDk2LjAxNTYyNX0seyJ4Ijo0NjUuMDExNzE4NzUsInkiOjExMzMuMDE1NjI1fV0=" marker-end="url(#container_flowchart-v2-pointEnd)"></path><path d="M316.008,319L316.008,344L316.008,369L316.008,394L316.008,415" id="L_C_D_0" class="edge-thickness-normal edge-pattern-solid edge-thickness-normal edge-pattern-solid flowchart-link" style=";" data-edge="true" data-et="edge" data-id="L_C_D_0" data-points="W3sieCI6MzE2LjAwNzgxMjUsInkiOjMxOX0seyJ4IjozMTYuMDA3ODEyNSwieSI6MzQ0fSx7IngiOjMxNi4wMDc4MTI1LCJ5IjozNjl9LHsieCI6MzE2LjAwNzgxMjUsInkiOjM5NH0seyJ4IjozMTYuMDA3ODEyNSwieSI6NDE5fV0=" marker-end="url(#container_flowchart-v2-pointEnd)"></path><path d="M316.008,681L316.008,706L316.008,731L316.008,756L316.008,777" id="L_F_G_0" class="edge-thickness-normal edge-pattern-solid edge-thickness-normal edge-pattern-solid flowchart-link" style=";" data-edge="true" data-et="edge" data-id="L_F_G_0" data-points="W3sieCI6MzE2LjAwNzgxMjUsInkiOjY4MX0seyJ4IjozMTYuMDA3ODEyNSwieSI6NzA2fSx7IngiOjMxNi4wMDc4MTI1LCJ5Ijo3MzF9LHsieCI6MzE2LjAwNzgxMjUsInkiOjc1Nn0seyJ4IjozMTYuMDA3ODEyNSwieSI6NzgxfV0=" marker-end="url(#container_flowchart-v2-pointEnd)"></path><path d="M167.004,1199.016L167.004,1236.016L167.004,1261.016L272.444,1292.844" id="L_I_K_0" class="edge-thickness-normal edge-pattern-solid edge-thickness-normal edge-pattern-solid flowchart-link" style=";" data-edge="true" data-et="edge" data-id="L_I_K_0" data-points="W3sieCI6MTY3LjAwMzkwNjI1LCJ5IjoxMTk5LjAxNTYyNX0seyJ4IjoxNjcuMDAzOTA2MjUsInkiOjEyMzYuMDE1NjI1fSx7IngiOjE2Ny4wMDM5MDYyNSwieSI6MTI2MS4wMTU2MjV9LHsieCI6Mjc2LjI3MzI5NDc0MjU5ODYsInkiOjEyOTMuOTk5NTkwNzU0NTU5N31d" marker-end="url(#container_flowchart-v2-pointEnd)"></path><path d="M465.012,1211.016L465.012,1236.016L465.012,1261.016L360.569,1292.834" id="L_J_K_0" class="edge-thickness-normal edge-pattern-solid edge-thickness-normal edge-pattern-solid flowchart-link" style=";" data-edge="true" data-et="edge" data-id="L_J_K_0" data-points="W3sieCI6NDY1LjAxMTcxODc1LCJ5IjoxMjExLjAxNTYyNX0seyJ4Ijo0NjUuMDExNzE4NzUsInkiOjEyMzYuMDE1NjI1fSx7IngiOjQ2NS4wMTE3MTg3NSwieSI6MTI2MS4wMTU2MjV9LHsieCI6MzU2Ljc0MjMyNzk4NTYyMDMsInkiOjEyOTMuOTk5NTkxNDMzMDI3fV0=" marker-end="url(#container_flowchart-v2-pointEnd)"></path></g><g class="edgeLabels"><g class="edgeLabel"><g class="label" data-id="L_A_B_0" transform="translate(0, 0)"><foreignObject width="0" height="0"><div xmlns="http://www.w3.org/1999/xhtml" class="labelBkg" style="display: table-cell; white-space: nowrap; line-height: 1.5; max-width: 200px; text-align: center;"><span class="edgeLabel"></span></div></foreignObject></g></g><g class="edgeLabel"><g class="label" data-id="L_B_C_0" transform="translate(0, 0)"><foreignObject width="0" height="0"><div xmlns="http://www.w3.org/1999/xhtml" class="labelBkg" style="display: table-cell; white-space: nowrap; line-height: 1.5; max-width: 200px; text-align: center;"><span class="edgeLabel"></span></div></foreignObject></g></g><g class="edgeLabel"><g class="label" data-id="L_D_E_0" transform="translate(0, 0)"><foreignObject width="0" height="0"><div xmlns="http://www.w3.org/1999/xhtml" class="labelBkg" style="display: table-cell; white-space: nowrap; line-height: 1.5; max-width: 200px; text-align: center;"><span class="edgeLabel"></span></div></foreignObject></g></g><g class="edgeLabel"><g class="label" data-id="L_E_F_0" transform="translate(0, 0)"><foreignObject width="0" height="0"><div xmlns="http://www.w3.org/1999/xhtml" class="labelBkg" style="display: table-cell; white-space: nowrap; line-height: 1.5; max-width: 200px; text-align: center;"><span class="edgeLabel"></span></div></foreignObject></g></g><g class="edgeLabel"><g class="label" data-id="L_G_H_0" transform="translate(0, 0)"><foreignObject width="0" height="0"><div xmlns="http://www.w3.org/1999/xhtml" class="labelBkg" style="display: table-cell; white-space: nowrap; line-height: 1.5; max-width: 200px; text-align: center;"><span class="edgeLabel"></span></div></foreignObject></g></g><g class="edgeLabel" transform="translate(167.00390625, 1096.015625)"><g class="label" data-id="L_H_I_0" transform="translate(-8.0078125, -12)"><foreignObject width="16.015625" height="24"><div xmlns="http://www.w3.org/1999/xhtml" class="labelBkg" style="display: table-cell; white-space: nowrap; line-height: 1.5; max-width: 200px; text-align: center;"><span class="edgeLabel"><p>是</p></span></div></foreignObject></g></g><g class="edgeLabel" transform="translate(465.01171875, 1096.015625)"><g class="label" data-id="L_H_J_0" transform="translate(-8.0078125, -12)"><foreignObject width="16.015625" height="24"><div xmlns="http://www.w3.org/1999/xhtml" class="labelBkg" style="display: table-cell; white-space: nowrap; line-height: 1.5; max-width: 200px; text-align: center;"><span class="edgeLabel"><p>否</p></span></div></foreignObject></g></g><g class="edgeLabel"><g class="label" data-id="L_C_D_0" transform="translate(0, 0)"><foreignObject width="0" height="0"><div xmlns="http://www.w3.org/1999/xhtml" class="labelBkg" style="display: table-cell; white-space: nowrap; line-height: 1.5; max-width: 200px; text-align: center;"><span class="edgeLabel"></span></div></foreignObject></g></g><g class="edgeLabel"><g class="label" data-id="L_F_G_0" transform="translate(0, 0)"><foreignObject width="0" height="0"><div xmlns="http://www.w3.org/1999/xhtml" class="labelBkg" style="display: table-cell; white-space: nowrap; line-height: 1.5; max-width: 200px; text-align: center;"><span class="edgeLabel"></span></div></foreignObject></g></g><g class="edgeLabel"><g class="label" data-id="L_I_K_0" transform="translate(0, 0)"><foreignObject width="0" height="0"><div xmlns="http://www.w3.org/1999/xhtml" class="labelBkg" style="display: table-cell; white-space: nowrap; line-height: 1.5; max-width: 200px; text-align: center;"><span class="edgeLabel"></span></div></foreignObject></g></g><g class="edgeLabel"><g class="label" data-id="L_J_K_0" transform="translate(0, 0)"><foreignObject width="0" height="0"><div xmlns="http://www.w3.org/1999/xhtml" class="labelBkg" style="display: table-cell; white-space: nowrap; line-height: 1.5; max-width: 200px; text-align: center;"><span class="edgeLabel"></span></div></foreignObject></g></g></g><g class="nodes"><g class="node default" id="flowchart-A-0" transform="translate(316.0078125, 60)"><rect class="basic label-container" style="" x="-78.0078125" y="-27" width="156.015625" height="54"></rect><g class="label" style="" transform="translate(-48.0078125, -12)"><rect></rect><foreignObject width="96.015625" height="24"><div xmlns="http://www.w3.org/1999/xhtml" style="display: table-cell; white-space: nowrap; line-height: 1.5; max-width: 200px; text-align: center;"><span class="nodeLabel"><p>提交生成需求</p></span></div></foreignObject></g></g><g class="node default" id="flowchart-B-1" transform="translate(316.0078125, 176)"><rect class="basic label-container" style="" x="-130" y="-39" width="260" height="78"></rect><g class="label" style="" transform="translate(-100, -24)"><rect></rect><foreignObject width="200" height="48"><div xmlns="http://www.w3.org/1999/xhtml" style="display: table; white-space: break-spaces; line-height: 1.5; max-width: 200px; text-align: center; width: 200px;"><span class="nodeLabel"><p>校验身份、项目归属与请求频率</p></span></div></foreignObject></g></g><g class="node default" id="flowchart-C-2" transform="translate(316.0078125, 292)"><rect class="basic label-container" style="" x="-118.0078125" y="-27" width="236.015625" height="54"></rect><g class="label" style="" transform="translate(-88.0078125, -12)"><rect></rect><foreignObject width="176.015625" height="24"><div xmlns="http://www.w3.org/1999/xhtml" style="display: table-cell; white-space: nowrap; line-height: 1.5; max-width: 200px; text-align: center;"><span class="nodeLabel"><p>创建生成任务并返回标识</p></span></div></foreignObject></g></g><g class="node default" id="flowchart-D-6" transform="translate(316.0078125, 446)"><rect class="basic label-container" style="" x="-78.0078125" y="-27" width="156.015625" height="54"></rect><g class="label" style="" transform="translate(-48.0078125, -12)"><rect></rect><foreignObject width="96.015625" height="24"><div xmlns="http://www.w3.org/1999/xhtml" style="display: table-cell; white-space: nowrap; line-height: 1.5; max-width: 200px; text-align: center;"><span class="nodeLabel"><p>建立流式连接</p></span></div></foreignObject></g></g><g class="node default" id="flowchart-E-7" transform="translate(316.0078125, 550)"><rect class="basic label-container" style="" x="-94.0078125" y="-27" width="188.015625" height="54"></rect><g class="label" style="" transform="translate(-64.0078125, -12)"><rect></rect><foreignObject width="128.015625" height="24"><div xmlns="http://www.w3.org/1999/xhtml" style="display: table-cell; white-space: nowrap; line-height: 1.5; max-width: 200px; text-align: center;"><span class="nodeLabel"><p>调用模型生成代码</p></span></div></foreignObject></g></g><g class="node default" id="flowchart-F-8" transform="translate(316.0078125, 654)"><rect class="basic label-container" style="" x="-94.0078125" y="-27" width="188.015625" height="54"></rect><g class="label" style="" transform="translate(-64.0078125, -12)"><rect></rect><foreignObject width="128.015625" height="24"><div xmlns="http://www.w3.org/1999/xhtml" style="display: table-cell; white-space: nowrap; line-height: 1.5; max-width: 200px; text-align: center;"><span class="nodeLabel"><p>持续回传生成片段</p></span></div></foreignObject></g></g><g class="node default" id="flowchart-G-12" transform="translate(316.0078125, 820)"><rect class="basic label-container" style="" x="-130" y="-39" width="260" height="78"></rect><g class="label" style="" transform="translate(-100, -24)"><rect></rect><foreignObject width="200" height="48"><div xmlns="http://www.w3.org/1999/xhtml" style="display: table; white-space: break-spaces; line-height: 1.5; max-width: 200px; text-align: center; width: 200px;"><span class="nodeLabel"><p>提取组件结构并执行安全检测</p></span></div></foreignObject></g></g><g class="node default" id="flowchart-H-13" transform="translate(316.0078125, 984.0078125)"><polygon points="75.0078125,0 150.015625,-75.0078125 75.0078125,-150.015625 0,-75.0078125" class="label-container" transform="translate(-74.5078125, 75.0078125)"></polygon><g class="label" style="" transform="translate(-48.0078125, -12)"><rect></rect><foreignObject width="96.015625" height="24"><div xmlns="http://www.w3.org/1999/xhtml" style="display: table-cell; white-space: nowrap; line-height: 1.5; max-width: 200px; text-align: center;"><span class="nodeLabel"><p>检测是否通过</p></span></div></foreignObject></g></g><g class="node default" id="flowchart-I-14" transform="translate(167.00390625, 1172.015625)"><rect class="basic label-container" style="" x="-118.0078125" y="-27" width="236.015625" height="54"></rect><g class="label" style="" transform="translate(-88.0078125, -12)"><rect></rect><foreignObject width="176.015625" height="24"><div xmlns="http://www.w3.org/1999/xhtml" style="display: table-cell; white-space: nowrap; line-height: 1.5; max-width: 200px; text-align: center;"><span class="nodeLabel"><p>保存版本并返回最终结果</p></span></div></foreignObject></g></g><g class="node default" id="flowchart-J-15" transform="translate(465.01171875, 1172.015625)"><rect class="basic label-container" style="" x="-130" y="-39" width="260" height="78"></rect><g class="label" style="" transform="translate(-100, -24)"><rect></rect><foreignObject width="200" height="48"><div xmlns="http://www.w3.org/1999/xhtml" style="display: table; white-space: break-spaces; line-height: 1.5; max-width: 200px; text-align: center; width: 200px;"><span class="nodeLabel"><p>记录失败原因并返回错误信息</p></span></div></foreignObject></g></g><g class="node default" id="flowchart-K-27" transform="translate(316.0078125, 1305.515625)"><g class="basic label-container outer-path"><path d="M-24.8828125 -19.5 C-7.6224377344302 -19.5, 9.6379370311396 -19.5, 24.8828125 -19.5 C24.8828125 -19.5, 24.8828125 -19.5, 24.8828125 -19.5 C25.310775090943686 -19.486276072687087, 25.73873768188737 -19.47255214537417, 26.1321817896239 -19.45993515863156 C26.45286192118948 -19.428999532013712, 26.773542052755065 -19.398063905395862, 27.376417152847864 -19.3399052695533 C27.637002372567036 -19.297775872097663, 27.897587592286207 -19.25564647464203, 28.61040575967676 -19.140403561325776 C28.970403578129883 -19.05823640846916, 29.330401396583003 -18.976069255612547, 29.82907688623539 -18.862249829261074 C30.2029198330902 -18.75129520497624, 30.576762779945003 -18.640340580691404, 31.027422751460602 -18.50658706670804 C31.388241943826635 -18.37380226854129, 31.749061136192665 -18.241017470374537, 32.2005190951478 -18.074876768247425 C32.49804763686518 -17.94316970869974, 32.79557617858257 -17.811462649152062, 33.34354541279238 -17.568892924097174 C33.62388069988493 -17.422642184384316, 33.90421598697747 -17.276391444671454, 34.45180476407678 -16.990714730406097 C34.75058668968419 -16.809591371265398, 35.0493686152916 -16.6284680121247, 35.5207430736057 -16.342718045390892 C35.855316059582265 -16.109334413804774, 36.18988904555883 -15.875950782218654, 36.54596784457871 -15.627565626425154 C36.81242513714851 -15.415073026327086, 37.078882429718306 -15.20258042622902, 37.523266208501866 -14.848196188198123 C37.88504926738866 -14.519634386372338, 38.246832326275445 -14.191072584546554, 38.44862223676799 -14.007812326905688 C38.695189210152435 -13.75321168336125, 38.94175618353688 -13.498611039816815, 39.31823344296865 -13.10986736009568 C39.55611246037491 -12.830441130550744, 39.79399147778118 -12.551014901005807, 40.12852640812658 -12.158051136245305 C40.41227600140074 -11.777852531377665, 40.6960255946749 -11.397653926510024, 40.876171464640635 -11.156274872382312 C41.13285994970888 -10.761932428808068, 41.389548434777126 -10.367589985233824, 41.55809637860425 -10.108655082055241 C41.69843472361849 -9.859470139684058, 41.83877306863273 -9.610285197312873, 42.171498974273504 -9.019496659696287 C42.29331325902198 -8.766546691007926, 42.41512754377045 -8.513596722319566, 42.71385864880834 -7.893275190886684 C42.846929226485344 -7.564588291279888, 42.97999980416235 -7.235901391673092, 43.182946729970325 -6.734618561215508 C43.26661479892304 -6.482623668226377, 43.350282867875755 -6.230628775237245, 43.57683563421488 -5.548287939305138 C43.68728303592 -5.127104128396829, 43.79773043762511 -4.705920317488522, 43.89390678754556 -4.339158212148133 C43.956184152564106 -4.019377105103641, 44.01846151758266 -3.6995959980591495, 44.132857276581774 -3.1121979531509023 C44.18252209122967 -2.7270074581687407, 44.232186905877576 -2.341816963186579, 44.29270520250937 -1.872449005199798 C44.31419951816806 -1.5376576889163622, 44.33569383382675 -1.2028663726329265, 44.37279371591342 -0.6250057626472757 C44.37279371591342 -0.31973605295867, 44.37279371591342 -0.014466343270064352, 44.37279371591342 0.625005762647271 C44.34756381877039 1.0179817758563896, 44.322333921627354 1.4109577890655083, 44.29270520250937 1.8724490051997846 C44.24274446410134 2.2599346264287035, 44.19278372569332 2.6474202476576227, 44.132857276581774 3.1121979531508885 C44.081900734344465 3.373849027870455, 44.03094419210716 3.6355001025900213, 43.89390678754556 4.339158212148129 C43.77819166970766 4.780430107713365, 43.66247655186976 5.221702003278601, 43.57683563421489 5.548287939305125 C43.45116501367255 5.926787825484411, 43.32549439313022 6.305287711663695, 43.182946729970325 6.734618561215495 C43.06670012733361 7.021749917203339, 42.950453524696904 7.308881273191183, 42.71385864880834 7.893275190886679 C42.56794896425882 8.196259772820882, 42.422039279709296 8.499244354755085, 42.171498974273504 9.019496659696284 C42.00087720541047 9.322452887640193, 41.830255436547425 9.625409115584102, 41.55809637860425 10.108655082055236 C41.3346847316058 10.451875366272088, 41.11127308460735 10.795095650488939, 40.87617146464064 11.156274872382301 C40.59678805689141 11.530623186414218, 40.31740464914218 11.904971500446134, 40.12852640812658 12.158051136245302 C39.94722877773758 12.371013649027638, 39.765931147348574 12.583976161809975, 39.31823344296866 13.10986736009567 C39.084587373264675 13.351126109764106, 38.850941303560695 13.59238485943254, 38.44862223676799 14.007812326905684 C38.20279938181144 14.2310621396609, 37.95697652685488 14.454311952416115, 37.52326620850189 14.848196188198111 C37.148726073175716 15.146881979189144, 36.77418593784955 15.445567770180178, 36.54596784457871 15.627565626425152 C36.33698839480451 15.773340644013063, 36.1280089450303 15.919115661600973, 35.52074307360571 16.34271804539089 C35.2228880843451 16.523279490270877, 34.92503309508449 16.703840935150865, 34.45180476407678 16.990714730406093 C34.15878435719269 17.143583288989, 33.86576395030858 17.29645184757191, 33.34354541279239 17.56889292409717 C33.03005087951657 17.707667654493456, 32.71655634624075 17.84644238488974, 32.200519095147804 18.07487676824742 C31.818205840445867 18.21557158004272, 31.43589258574393 18.356266391838016, 31.027422751460616 18.506587066708033 C30.67390793793745 18.611508407724585, 30.32039312441428 18.71642974874114, 29.829076886235413 18.86224982926107 C29.546741504872458 18.92669103764662, 29.2644061235095 18.99113224603217, 28.610405759676766 19.140403561325773 C28.26098831846819 19.196894663447647, 27.911570877259617 19.253385765569526, 27.37641715284788 19.3399052695533 C27.08022941582273 19.368478144326243, 26.784041678797575 19.39705101909919, 26.1321817896239 19.45993515863156 C25.70416981800079 19.473660669486748, 25.27615784637768 19.48738618034194, 24.882812500000004 19.5 C24.882812500000004 19.5, 24.8828125 19.5, 24.8828125 19.5 C10.749213533786147 19.5, -3.384385432427706 19.5, -24.882812499999996 19.5 C-25.31828309601444 19.48603530557791, -25.753753692028884 19.472070611155825, -26.132181789623893 19.45993515863156 C-26.42476968704736 19.431709556055548, -26.717357584470825 19.403483953479537, -27.37641715284787 19.3399052695533 C-27.70240308180345 19.287202392618397, -28.02838901075903 19.234499515683492, -28.61040575967676 19.140403561325773 C-28.99663495734944 19.05224926733804, -29.38286415502212 18.964094973350306, -29.829076886235388 18.862249829261074 C-30.164381976337996 18.762733038570953, -30.499687066440604 18.663216247880836, -31.02742275146059 18.506587066708043 C-31.30404209090556 18.40478859275115, -31.580661430350535 18.30299011879426, -32.2005190951478 18.074876768247425 C-32.472225783265365 17.95460027731031, -32.74393247138294 17.834323786373197, -33.34354541279238 17.568892924097174 C-33.68797840376948 17.389202453324284, -34.032411394746575 17.20951198255139, -34.45180476407678 16.990714730406097 C-34.68501853044908 16.849339174714995, -34.91823229682137 16.707963619023893, -35.520743073605686 16.3427180453909 C-35.75993166599318 16.17587043764867, -35.99912025838067 16.00902282990644, -36.54596784457871 15.627565626425156 C-36.85016564805983 15.384975973192487, -37.15436345154094 15.142386319959819, -37.523266208501866 14.848196188198125 C-37.78011443406726 14.614933425571285, -38.03696265963265 14.381670662944444, -38.448622236767974 14.007812326905697 C-38.66271017119124 13.786748957667374, -38.876798105614505 13.56568558842905, -39.318233442968655 13.109867360095677 C-39.634321817571674 12.738571969348937, -39.95041019217469 12.367276578602198, -40.128526408126575 12.158051136245307 C-40.28243377876256 11.951829280842997, -40.436341149398544 11.745607425440689, -40.876171464640635 11.156274872382316 C-41.0134218883001 10.945421364742167, -41.150672311959575 10.734567857102016, -41.55809637860425 10.108655082055249 C-41.70006878793583 9.856568693021682, -41.8420411972674 9.604482303988114, -42.171498974273504 9.019496659696289 C-42.29739866647486 8.758063255018293, -42.42329835867622 8.496629850340298, -42.71385864880834 7.893275190886686 C-42.84635495752644 7.5660067467111345, -42.978851266244526 7.238738302535583, -43.182946729970325 6.73461856121551 C-43.284533858760874 6.428654315009285, -43.38612098755142 6.122690068803061, -43.57683563421488 5.5482879393051325 C-43.69765550840798 5.08754939534212, -43.818475382601086 4.626810851379108, -43.89390678754556 4.339158212148136 C-43.981272695307624 3.8905527405810902, -44.06863860306968 3.441947269014045, -44.132857276581774 3.112197953150904 C-44.19586577552916 2.623516477750448, -44.25887427447655 2.134835002349992, -44.29270520250937 1.872449005199809 C-44.3187256083778 1.467160180505443, -44.344746014246226 1.061871355811077, -44.37279371591342 0.6250057626472781 C-44.37279371591342 0.28387424239989134, -44.37279371591342 -0.05725727784749546, -44.37279371591342 -0.6250057626472687 C-44.34438440251772 -1.0675037503702667, -44.31597508912203 -1.5100017380932644, -44.29270520250937 -1.8724490051997822 C-44.24907370745429 -2.210846264833715, -44.20544221239921 -2.549243524467648, -44.132857276581774 -3.112197953150895 C-44.06432320851414 -3.464105907997806, -43.9957891404465 -3.8160138628447164, -43.89390678754556 -4.339158212148126 C-43.80917170633769 -4.662289801210231, -43.724436625129826 -4.985421390272335, -43.57683563421489 -5.548287939305123 C-43.4644724022456 -5.88670809134683, -43.352109170276314 -6.2251282433885375, -43.18294672997033 -6.734618561215485 C-43.08824545135836 -6.96853255031172, -42.99354417274639 -7.202446539407957, -42.71385864880834 -7.893275190886676 C-42.53425129775018 -8.266233698340619, -42.35464394669203 -8.639192205794563, -42.171498974273504 -9.019496659696282 C-42.00070472040589 -9.32275915223182, -41.82991046653827 -9.626021644767356, -41.55809637860425 -10.108655082055243 C-41.35709300797544 -10.417450236303585, -41.156089637346646 -10.726245390551925, -40.87617146464064 -11.156274872382308 C-40.64140186789495 -11.47084474407128, -40.40663227114926 -11.785414615760251, -40.12852640812659 -12.158051136245302 C-39.860621262360716 -12.472747764696543, -39.592716116594836 -12.787444393147782, -39.31823344296866 -13.10986736009567 C-38.99001737316921 -13.448777399204083, -38.66180130336976 -13.787687438312496, -38.448622236767996 -14.007812326905677 C-38.150842989242015 -14.278247560701628, -37.853063741716035 -14.54868279449758, -37.52326620850189 -14.848196188198107 C-37.32140738979227 -15.009173224430267, -37.119548571082646 -15.170150260662426, -36.54596784457872 -15.627565626425149 C-36.16199338332396 -15.89540958860994, -35.77801892206921 -16.16325355079473, -35.520743073605715 -16.342718045390885 C-35.113013676731946 -16.58988600185966, -34.705284279858176 -16.837053958328436, -34.45180476407679 -16.99071473040609 C-34.058306082054116 -17.196002740769384, -33.66480740003144 -17.40129075113268, -33.34354541279239 -17.56889292409717 C-33.114889788394116 -17.670111986190182, -32.88623416399584 -17.771331048283194, -32.200519095147804 -18.07487676824742 C-31.809640697734228 -18.218723631735912, -31.418762300320655 -18.362570495224407, -31.02742275146062 -18.506587066708033 C-30.576914769707155 -18.640295470927807, -30.12640678795369 -18.774003875147585, -29.829076886235413 -18.862249829261067 C-29.412365828493094 -18.95736140889697, -28.995654770750775 -19.05247298853287, -28.610405759676766 -19.140403561325773 C-28.12686668602538 -19.21857840885221, -27.643327612373998 -19.296753256378643, -27.376417152847882 -19.3399052695533 C-27.041299037950374 -19.37223371105896, -26.706180923052862 -19.404562152564626, -26.132181789623903 -19.45993515863156 C-25.74194816230535 -19.472449191515988, -25.351714534986794 -19.484963224400417, -24.882812500000007 -19.5 C-24.882812500000004 -19.5, -24.882812500000004 -19.5, -24.8828125 -19.5" stroke="none" stroke-width="0" fill="#eee" style=""></path><path d="M-24.8828125 -19.5 C-13.513140487784558 -19.5, -2.143468475569115 -19.5, 24.8828125 -19.5 M-24.8828125 -19.5 C-12.669405861314724 -19.5, -0.4559992226294476 -19.5, 24.8828125 -19.5 M24.8828125 -19.5 C24.8828125 -19.5, 24.8828125 -19.5, 24.8828125 -19.5 M24.8828125 -19.5 C24.8828125 -19.5, 24.8828125 -19.5, 24.8828125 -19.5 M24.8828125 -19.5 C25.31623402410294 -19.486101015325836, 25.74965554820588 -19.472202030651676, 26.1321817896239 -19.45993515863156 M24.8828125 -19.5 C25.243953438204226 -19.488418913029985, 25.605094376408452 -19.476837826059967, 26.1321817896239 -19.45993515863156 M26.1321817896239 -19.45993515863156 C26.520386197595943 -19.422485546278605, 26.908590605567984 -19.38503593392565, 27.376417152847864 -19.3399052695533 M26.1321817896239 -19.45993515863156 C26.576443017239733 -19.417077812305756, 27.02070424485557 -19.374220465979953, 27.376417152847864 -19.3399052695533 M27.376417152847864 -19.3399052695533 C27.816861506334774 -19.268697642178513, 28.257305859821685 -19.197490014803723, 28.61040575967676 -19.140403561325776 M27.376417152847864 -19.3399052695533 C27.738753138647407 -19.281325597326767, 28.101089124446954 -19.222745925100234, 28.61040575967676 -19.140403561325776 M28.61040575967676 -19.140403561325776 C28.9949897110672 -19.052624784065728, 29.37957366245764 -18.964846006805683, 29.82907688623539 -18.862249829261074 M28.61040575967676 -19.140403561325776 C29.06240523077551 -19.037237631619686, 29.514404701874266 -18.934071701913595, 29.82907688623539 -18.862249829261074 M29.82907688623539 -18.862249829261074 C30.09475782759945 -18.78339712045194, 30.360438768963512 -18.704544411642807, 31.027422751460602 -18.50658706670804 M29.82907688623539 -18.862249829261074 C30.219961076321926 -18.746237453436375, 30.610845266408457 -18.630225077611676, 31.027422751460602 -18.50658706670804 M31.027422751460602 -18.50658706670804 C31.420773167986006 -18.3618304773353, 31.814123584511414 -18.21707388796256, 32.2005190951478 -18.074876768247425 M31.027422751460602 -18.50658706670804 C31.462785117089314 -18.346369691711082, 31.898147482718027 -18.186152316714125, 32.2005190951478 -18.074876768247425 M32.2005190951478 -18.074876768247425 C32.51569813445926 -17.935356356998255, 32.83087717377072 -17.795835945749086, 33.34354541279238 -17.568892924097174 M32.2005190951478 -18.074876768247425 C32.542456734751276 -17.923511118414652, 32.88439437435476 -17.77214546858188, 33.34354541279238 -17.568892924097174 M33.34354541279238 -17.568892924097174 C33.719172216618944 -17.37292866114131, 34.09479902044551 -17.176964398185444, 34.45180476407678 -16.990714730406097 M33.34354541279238 -17.568892924097174 C33.65997749417703 -17.403810509923225, 33.97640957556168 -17.238728095749273, 34.45180476407678 -16.990714730406097 M34.45180476407678 -16.990714730406097 C34.82612963449799 -16.763796794179655, 35.200454504919186 -16.536878857953212, 35.5207430736057 -16.342718045390892 M34.45180476407678 -16.990714730406097 C34.799346232068125 -16.78003305012938, 35.146887700059466 -16.56935136985266, 35.5207430736057 -16.342718045390892 M35.5207430736057 -16.342718045390892 C35.756370663635686 -16.178354438739948, 35.99199825366567 -16.013990832089004, 36.54596784457871 -15.627565626425154 M35.5207430736057 -16.342718045390892 C35.831803335789516 -16.125735872073186, 36.14286359797333 -15.908753698755476, 36.54596784457871 -15.627565626425154 M36.54596784457871 -15.627565626425154 C36.928497011171636 -15.32250879559593, 37.31102617776456 -15.017451964766707, 37.523266208501866 -14.848196188198123 M36.54596784457871 -15.627565626425154 C36.82443103668995 -15.405498640933194, 37.10289422880118 -15.183431655441233, 37.523266208501866 -14.848196188198123 M37.523266208501866 -14.848196188198123 C37.82911550300241 -14.570431951261616, 38.13496479750296 -14.292667714325109, 38.44862223676799 -14.007812326905688 M37.523266208501866 -14.848196188198123 C37.83038908287333 -14.569275319719926, 38.13751195724479 -14.29035445124173, 38.44862223676799 -14.007812326905688 M38.44862223676799 -14.007812326905688 C38.6977717771248 -13.750544970929592, 38.94692131748161 -13.493277614953497, 39.31823344296865 -13.10986736009568 M38.44862223676799 -14.007812326905688 C38.78276078628043 -13.662786841248987, 39.116899335792866 -13.317761355592287, 39.31823344296865 -13.10986736009568 M39.31823344296865 -13.10986736009568 C39.58562441071508 -12.795774714403638, 39.85301537846151 -12.481682068711597, 40.12852640812658 -12.158051136245305 M39.31823344296865 -13.10986736009568 C39.545352766473044 -12.843080079251806, 39.77247208997744 -12.576292798407929, 40.12852640812658 -12.158051136245305 M40.12852640812658 -12.158051136245305 C40.29670985261582 -11.932700642456718, 40.46489329710506 -11.70735014866813, 40.876171464640635 -11.156274872382312 M40.12852640812658 -12.158051136245305 C40.34992290333331 -11.86140000230393, 40.57131939854004 -11.564748868362553, 40.876171464640635 -11.156274872382312 M40.876171464640635 -11.156274872382312 C41.13684752583284 -10.75580644106754, 41.397523587025056 -10.355338009752769, 41.55809637860425 -10.108655082055241 M40.876171464640635 -11.156274872382312 C41.02243068193393 -10.93158143852079, 41.16868989922723 -10.70688800465927, 41.55809637860425 -10.108655082055241 M41.55809637860425 -10.108655082055241 C41.73767097033279 -9.789802210542005, 41.91724556206134 -9.470949339028767, 42.171498974273504 -9.019496659696287 M41.55809637860425 -10.108655082055241 C41.801985876044284 -9.675604582860847, 42.04587537348432 -9.242554083666455, 42.171498974273504 -9.019496659696287 M42.171498974273504 -9.019496659696287 C42.33235234423182 -8.68548119526708, 42.49320571419013 -8.351465730837873, 42.71385864880834 -7.893275190886684 M42.171498974273504 -9.019496659696287 C42.30860311318969 -8.734796981678205, 42.44570725210587 -8.450097303660122, 42.71385864880834 -7.893275190886684 M42.71385864880834 -7.893275190886684 C42.81550904019186 -7.642196758892771, 42.91715943157538 -7.391118326898859, 43.182946729970325 -6.734618561215508 M42.71385864880834 -7.893275190886684 C42.83484740892616 -7.594430614237133, 42.95583616904398 -7.295586037587583, 43.182946729970325 -6.734618561215508 M43.182946729970325 -6.734618561215508 C43.30406030940873 -6.369843756775344, 43.42517388884714 -6.00506895233518, 43.57683563421488 -5.548287939305138 M43.182946729970325 -6.734618561215508 C43.317969530949064 -6.327951397629363, 43.4529923319278 -5.921284234043218, 43.57683563421488 -5.548287939305138 M43.57683563421488 -5.548287939305138 C43.68763984912768 -5.125743444992123, 43.798444064040474 -4.703198950679109, 43.89390678754556 -4.339158212148133 M43.57683563421488 -5.548287939305138 C43.670863232437924 -5.18971995546182, 43.76489083066097 -4.831151971618502, 43.89390678754556 -4.339158212148133 M43.89390678754556 -4.339158212148133 C43.94527951546906 -4.075370111890853, 43.99665224339256 -3.8115820116335732, 44.132857276581774 -3.1121979531509023 M43.89390678754556 -4.339158212148133 C43.986710235320515 -3.862632121839355, 44.07951368309548 -3.3861060315305775, 44.132857276581774 -3.1121979531509023 M44.132857276581774 -3.1121979531509023 C44.16971778693879 -2.8263151137529765, 44.206578297295806 -2.5404322743550507, 44.29270520250937 -1.872449005199798 M44.132857276581774 -3.1121979531509023 C44.181666595907345 -2.7336425109520603, 44.230475915232915 -2.355087068753219, 44.29270520250937 -1.872449005199798 M44.29270520250937 -1.872449005199798 C44.324123395024785 -1.3830852964636842, 44.355541587540195 -0.8937215877275703, 44.37279371591342 -0.6250057626472757 M44.29270520250937 -1.872449005199798 C44.31499899036276 -1.5252052641615539, 44.33729277821615 -1.1779615231233098, 44.37279371591342 -0.6250057626472757 M44.37279371591342 -0.6250057626472757 C44.37279371591342 -0.3180765816153777, 44.37279371591342 -0.011147400583479739, 44.37279371591342 0.625005762647271 M44.37279371591342 -0.6250057626472757 C44.37279371591342 -0.31457432899463444, 44.37279371591342 -0.004142895341993191, 44.37279371591342 0.625005762647271 M44.37279371591342 0.625005762647271 C44.34940165714467 0.989355959700546, 44.32600959837592 1.3537061567538209, 44.29270520250937 1.8724490051997846 M44.37279371591342 0.625005762647271 C44.34466458174355 1.0631397327713314, 44.316535447573685 1.501273702895392, 44.29270520250937 1.8724490051997846 M44.29270520250937 1.8724490051997846 C44.23875590335227 2.2908691159681154, 44.184806604195174 2.709289226736446, 44.132857276581774 3.1121979531508885 M44.29270520250937 1.8724490051997846 C44.238679317974466 2.2914630970348817, 44.18465343343956 2.7104771888699783, 44.132857276581774 3.1121979531508885 M44.132857276581774 3.1121979531508885 C44.05833049199751 3.494877240749602, 43.983803707413244 3.8775565283483147, 43.89390678754556 4.339158212148129 M44.132857276581774 3.1121979531508885 C44.05407350908707 3.5167359482810383, 43.97528974159237 3.921273943411188, 43.89390678754556 4.339158212148129 M43.89390678754556 4.339158212148129 C43.82882188963154 4.58735513586748, 43.76373699171752 4.83555205958683, 43.57683563421489 5.548287939305125 M43.89390678754556 4.339158212148129 C43.80398536146484 4.682067581986513, 43.71406393538412 5.024976951824898, 43.57683563421489 5.548287939305125 M43.57683563421489 5.548287939305125 C43.428951583030035 5.993691139350138, 43.28106753184518 6.439094339395151, 43.182946729970325 6.734618561215495 M43.57683563421489 5.548287939305125 C43.47006256775193 5.86987140351367, 43.36328950128898 6.191454867722214, 43.182946729970325 6.734618561215495 M43.182946729970325 6.734618561215495 C43.04160708979428 7.083730205066371, 42.900267449618234 7.432841848917247, 42.71385864880834 7.893275190886679 M43.182946729970325 6.734618561215495 C43.06695865651778 7.021111345120145, 42.95097058306522 7.307604129024797, 42.71385864880834 7.893275190886679 M42.71385864880834 7.893275190886679 C42.60292347545376 8.123634451989934, 42.49198830209917 8.35399371309319, 42.171498974273504 9.019496659696284 M42.71385864880834 7.893275190886679 C42.49830172629241 8.340883752670294, 42.28274480377648 8.788492314453908, 42.171498974273504 9.019496659696284 M42.171498974273504 9.019496659696284 C42.011822168512076 9.30301899735559, 41.85214536275065 9.586541335014896, 41.55809637860425 10.108655082055236 M42.171498974273504 9.019496659696284 C41.971500334452685 9.374614496756484, 41.771501694631866 9.729732333816683, 41.55809637860425 10.108655082055236 M41.55809637860425 10.108655082055236 C41.34982299340616 10.428618930954265, 41.14154960820806 10.748582779853292, 40.87617146464064 11.156274872382301 M41.55809637860425 10.108655082055236 C41.392656107186895 10.36281576588552, 41.22721583576955 10.616976449715803, 40.87617146464064 11.156274872382301 M40.87617146464064 11.156274872382301 C40.59961038598438 11.526841522549114, 40.32304930732811 11.897408172715927, 40.12852640812658 12.158051136245302 M40.87617146464064 11.156274872382301 C40.655954155548265 11.451346004356513, 40.43573684645588 11.746417136330722, 40.12852640812658 12.158051136245302 M40.12852640812658 12.158051136245302 C39.81366444205532 12.52790591774602, 39.49880247598406 12.897760699246737, 39.31823344296866 13.10986736009567 M40.12852640812658 12.158051136245302 C39.80807523551644 12.534471317781446, 39.487624062906306 12.91089149931759, 39.31823344296866 13.10986736009567 M39.31823344296866 13.10986736009567 C39.061441901107514 13.37502571004498, 38.80465035924637 13.64018405999429, 38.44862223676799 14.007812326905684 M39.31823344296866 13.10986736009567 C39.042362855380695 13.394726391176707, 38.76649226779273 13.679585422257743, 38.44862223676799 14.007812326905684 M38.44862223676799 14.007812326905684 C38.0899731024403 14.333527981366004, 37.7313239681126 14.659243635826321, 37.52326620850189 14.848196188198111 M38.44862223676799 14.007812326905684 C38.19007881724092 14.242614619836152, 37.93153539771384 14.477416912766621, 37.52326620850189 14.848196188198111 M37.52326620850189 14.848196188198111 C37.29229292910911 15.032391232056753, 37.061319649716324 15.216586275915395, 36.54596784457871 15.627565626425152 M37.52326620850189 14.848196188198111 C37.25700675595149 15.060531016145454, 36.99074730340108 15.272865844092797, 36.54596784457871 15.627565626425152 M36.54596784457871 15.627565626425152 C36.165396108188446 15.893035995046063, 35.78482437179817 16.158506363666973, 35.52074307360571 16.34271804539089 M36.54596784457871 15.627565626425152 C36.327415909583216 15.780017995317229, 36.10886397458772 15.932470364209305, 35.52074307360571 16.34271804539089 M35.52074307360571 16.34271804539089 C35.23300742327006 16.51714508754673, 34.94527177293441 16.691572129702568, 34.45180476407678 16.990714730406093 M35.52074307360571 16.34271804539089 C35.277171110267034 16.490372800954532, 35.03359914692836 16.638027556518175, 34.45180476407678 16.990714730406093 M34.45180476407678 16.990714730406093 C34.17608088730706 17.134559700307285, 33.90035701053734 17.278404670208477, 33.34354541279239 17.56889292409717 M34.45180476407678 16.990714730406093 C34.08723110555277 17.180912574537498, 33.72265744702876 17.371110418668902, 33.34354541279239 17.56889292409717 M33.34354541279239 17.56889292409717 C32.968207492053125 17.735043887604615, 32.59286957131386 17.90119485111206, 32.200519095147804 18.07487676824742 M33.34354541279239 17.56889292409717 C33.04410244388608 17.701447443771922, 32.74465947497978 17.83400196344667, 32.200519095147804 18.07487676824742 M32.200519095147804 18.07487676824742 C31.80004516379842 18.222254876924435, 31.399571232449034 18.36963298560145, 31.027422751460616 18.506587066708033 M32.200519095147804 18.07487676824742 C31.776269172013556 18.23100466168412, 31.35201924887931 18.387132555120825, 31.027422751460616 18.506587066708033 M31.027422751460616 18.506587066708033 C30.760407912359906 18.585835669363632, 30.4933930732592 18.665084272019232, 29.829076886235413 18.86224982926107 M31.027422751460616 18.506587066708033 C30.622524543880747 18.62675872936368, 30.217626336300874 18.746930392019323, 29.829076886235413 18.86224982926107 M29.829076886235413 18.86224982926107 C29.486897557081985 18.94035002821154, 29.144718227928557 19.018450227162006, 28.610405759676766 19.140403561325773 M29.829076886235413 18.86224982926107 C29.49098975833783 18.939416009979002, 29.152902630440245 19.016582190696933, 28.610405759676766 19.140403561325773 M28.610405759676766 19.140403561325773 C28.16511132734374 19.21239531183548, 27.719816895010716 19.284387062345186, 27.37641715284788 19.3399052695533 M28.610405759676766 19.140403561325773 C28.212374662391124 19.204754142357654, 27.81434356510548 19.26910472338954, 27.37641715284788 19.3399052695533 M27.37641715284788 19.3399052695533 C26.917342792223323 19.384191621005055, 26.458268431598768 19.428477972456808, 26.1321817896239 19.45993515863156 M27.37641715284788 19.3399052695533 C27.09413319934538 19.36713686305156, 26.81184924584288 19.394368456549824, 26.1321817896239 19.45993515863156 M26.1321817896239 19.45993515863156 C25.708415192744955 19.473524528581823, 25.28464859586601 19.48711389853209, 24.882812500000004 19.5 M26.1321817896239 19.45993515863156 C25.759534504812212 19.47188523174153, 25.386887220000524 19.483835304851507, 24.882812500000004 19.5 M24.882812500000004 19.5 C24.882812500000004 19.5, 24.8828125 19.5, 24.8828125 19.5 M24.882812500000004 19.5 C24.882812500000004 19.5, 24.8828125 19.5, 24.8828125 19.5 M24.8828125 19.5 C13.271340686117004 19.5, 1.6598688722340071 19.5, -24.882812499999996 19.5 M24.8828125 19.5 C10.606549842499202 19.5, -3.6697128150015956 19.5, -24.882812499999996 19.5 M-24.882812499999996 19.5 C-25.33156855700261 19.485609266702603, -25.78032461400522 19.471218533405203, -26.132181789623893 19.45993515863156 M-24.882812499999996 19.5 C-25.143578460361702 19.491637743201352, -25.404344420723408 19.4832754864027, -26.132181789623893 19.45993515863156 M-26.132181789623893 19.45993515863156 C-26.3973095349247 19.434358603905157, -26.6624372802255 19.40878204917875, -27.37641715284787 19.3399052695533 M-26.132181789623893 19.45993515863156 C-26.616694817077402 19.41319476958529, -27.10120784453091 19.366454380539018, -27.37641715284787 19.3399052695533 M-27.37641715284787 19.3399052695533 C-27.630679428990085 19.298798116580027, -27.884941705132302 19.257690963606752, -28.61040575967676 19.140403561325773 M-27.37641715284787 19.3399052695533 C-27.654241015478902 19.294988861999347, -27.932064878109937 19.250072454445394, -28.61040575967676 19.140403561325773 M-28.61040575967676 19.140403561325773 C-28.98254861409305 19.05546438326433, -29.354691468509344 18.97052520520289, -29.829076886235388 18.862249829261074 M-28.61040575967676 19.140403561325773 C-29.05366404008532 19.03923275135312, -29.49692232049388 18.938061941380468, -29.829076886235388 18.862249829261074 M-29.829076886235388 18.862249829261074 C-30.288685037293558 18.725840542559425, -30.748293188351727 18.58943125585778, -31.02742275146059 18.506587066708043 M-29.829076886235388 18.862249829261074 C-30.137670246625024 18.770660939737034, -30.446263607014657 18.679072050212994, -31.02742275146059 18.506587066708043 M-31.02742275146059 18.506587066708043 C-31.431507383620136 18.35788018675594, -31.835592015779678 18.209173306803834, -32.2005190951478 18.074876768247425 M-31.02742275146059 18.506587066708043 C-31.28287082678713 18.412579813651753, -31.538318902113666 18.318572560595467, -32.2005190951478 18.074876768247425 M-32.2005190951478 18.074876768247425 C-32.553443268541066 17.91864770580986, -32.90636744193433 17.762418643372296, -33.34354541279238 17.568892924097174 M-32.2005190951478 18.074876768247425 C-32.64911574464776 17.876296338660595, -33.09771239414771 17.67771590907377, -33.34354541279238 17.568892924097174 M-33.34354541279238 17.568892924097174 C-33.754366323196564 17.35456791828266, -34.16518723360075 17.140242912468153, -34.45180476407678 16.990714730406097 M-33.34354541279238 17.568892924097174 C-33.63439777715947 17.417155431906693, -33.92525014152656 17.265417939716215, -34.45180476407678 16.990714730406097 M-34.45180476407678 16.990714730406097 C-34.76474280418534 16.801009851464237, -35.0776808442939 16.611304972522376, -35.520743073605686 16.3427180453909 M-34.45180476407678 16.990714730406097 C-34.79300104327573 16.783879540863794, -35.134197322474684 16.57704435132149, -35.520743073605686 16.3427180453909 M-35.520743073605686 16.3427180453909 C-35.754305831551974 16.179794776216404, -35.987868589498255 16.016871507041913, -36.54596784457871 15.627565626425156 M-35.520743073605686 16.3427180453909 C-35.88222800497102 16.09056180570092, -36.243712936336344 15.838405566010936, -36.54596784457871 15.627565626425156 M-36.54596784457871 15.627565626425156 C-36.834043820505904 15.39783270164689, -37.122119796433104 15.16809977686862, -37.523266208501866 14.848196188198125 M-36.54596784457871 15.627565626425156 C-36.92617968658621 15.32435680028621, -37.306391528593714 15.021147974147267, -37.523266208501866 14.848196188198125 M-37.523266208501866 14.848196188198125 C-37.88687163719817 14.5179793583286, -38.25047706589448 14.187762528459073, -38.448622236767974 14.007812326905697 M-37.523266208501866 14.848196188198125 C-37.85099614888423 14.550560527601919, -38.17872608926659 14.25292486700571, -38.448622236767974 14.007812326905697 M-38.448622236767974 14.007812326905697 C-38.79087751143797 13.654405656128297, -39.133132786107964 13.300998985350896, -39.318233442968655 13.109867360095677 M-38.448622236767974 14.007812326905697 C-38.77991211683012 13.66572832633654, -39.11120199689226 13.323644325767384, -39.318233442968655 13.109867360095677 M-39.318233442968655 13.109867360095677 C-39.52726637288503 12.864325386305236, -39.736299302801406 12.618783412514794, -40.128526408126575 12.158051136245307 M-39.318233442968655 13.109867360095677 C-39.513084723738686 12.880983958351234, -39.70793600450871 12.65210055660679, -40.128526408126575 12.158051136245307 M-40.128526408126575 12.158051136245307 C-40.28429327551188 11.949337724602545, -40.44006014289719 11.740624312959785, -40.876171464640635 11.156274872382316 M-40.128526408126575 12.158051136245307 C-40.32299982019064 11.89747448097177, -40.51747323225471 11.636897825698234, -40.876171464640635 11.156274872382316 M-40.876171464640635 11.156274872382316 C-41.10650376827208 10.802422601120679, -41.33683607190352 10.448570329859043, -41.55809637860425 10.108655082055249 M-40.876171464640635 11.156274872382316 C-41.089941378686795 10.827866879148003, -41.30371129273295 10.49945888591369, -41.55809637860425 10.108655082055249 M-41.55809637860425 10.108655082055249 C-41.76622217450918 9.739106656403909, -41.974347970414115 9.369558230752569, -42.171498974273504 9.019496659696289 M-41.55809637860425 10.108655082055249 C-41.77801544749489 9.718166506019402, -41.99793451638553 9.327677929983556, -42.171498974273504 9.019496659696289 M-42.171498974273504 9.019496659696289 C-42.359570847694336 8.62896139044449, -42.54764272111516 8.238426121192692, -42.71385864880834 7.893275190886686 M-42.171498974273504 9.019496659696289 C-42.28919652719057 8.775095172739798, -42.406894080107634 8.530693685783307, -42.71385864880834 7.893275190886686 M-42.71385864880834 7.893275190886686 C-42.82814817354292 7.610977855154633, -42.9424376982775 7.328680519422581, -43.182946729970325 6.73461856121551 M-42.71385864880834 7.893275190886686 C-42.82778108826341 7.6118845628921425, -42.941703527718474 7.3304939348976, -43.182946729970325 6.73461856121551 M-43.182946729970325 6.73461856121551 C-43.29833846455765 6.387077041814631, -43.41373019914498 6.039535522413753, -43.57683563421488 5.5482879393051325 M-43.182946729970325 6.73461856121551 C-43.307197331630356 6.3603955456604355, -43.431447933290386 5.986172530105361, -43.57683563421488 5.5482879393051325 M-43.57683563421488 5.5482879393051325 C-43.67838824285444 5.161023829383508, -43.779940851494 4.773759719461882, -43.89390678754556 4.339158212148136 M-43.57683563421488 5.5482879393051325 C-43.67898990908034 5.158729415300342, -43.781144183945806 4.76917089129555, -43.89390678754556 4.339158212148136 M-43.89390678754556 4.339158212148136 C-43.955492356448225 4.022929331947561, -44.01707792535088 3.706700451746988, -44.132857276581774 3.112197953150904 M-43.89390678754556 4.339158212148136 C-43.972204684499495 3.9371150595560627, -44.05050258145343 3.5350719069639895, -44.132857276581774 3.112197953150904 M-44.132857276581774 3.112197953150904 C-44.1860554376308 2.699603521219769, -44.23925359867983 2.2870090892886337, -44.29270520250937 1.872449005199809 M-44.132857276581774 3.112197953150904 C-44.17904575120307 2.753969264934126, -44.22523422582436 2.395740576717347, -44.29270520250937 1.872449005199809 M-44.29270520250937 1.872449005199809 C-44.31999683568387 1.4473597890972267, -44.34728846885836 1.0222705729946444, -44.37279371591342 0.6250057626472781 M-44.29270520250937 1.872449005199809 C-44.317154410275236 1.491632859201116, -44.341603618041106 1.110816713202423, -44.37279371591342 0.6250057626472781 M-44.37279371591342 0.6250057626472781 C-44.37279371591342 0.14254988188121154, -44.37279371591342 -0.33990599888485507, -44.37279371591342 -0.6250057626472687 M-44.37279371591342 0.6250057626472781 C-44.37279371591342 0.2583785230847652, -44.37279371591342 -0.1082487164777477, -44.37279371591342 -0.6250057626472687 M-44.37279371591342 -0.6250057626472687 C-44.34423060119762 -1.0698993300770059, -44.31566748648183 -1.514792897506743, -44.29270520250937 -1.8724490051997822 M-44.37279371591342 -0.6250057626472687 C-44.35607624046078 -0.8853939369254146, -44.33935876500814 -1.1457821112035604, -44.29270520250937 -1.8724490051997822 M-44.29270520250937 -1.8724490051997822 C-44.254617073032044 -2.167853016074015, -44.21652894355472 -2.463257026948248, -44.132857276581774 -3.112197953150895 M-44.29270520250937 -1.8724490051997822 C-44.24326388852831 -2.2559060731450717, -44.19382257454726 -2.639363141090361, -44.132857276581774 -3.112197953150895 M-44.132857276581774 -3.112197953150895 C-44.080162689378604 -3.3827735214342174, -44.02746810217544 -3.6533490897175396, -43.89390678754556 -4.339158212148126 M-44.132857276581774 -3.112197953150895 C-44.05749815710862 -3.4991511044900223, -43.98213903763546 -3.88610425582915, -43.89390678754556 -4.339158212148126 M-43.89390678754556 -4.339158212148126 C-43.78292640155367 -4.762374523138762, -43.67194601556178 -5.185590834129398, -43.57683563421489 -5.548287939305123 M-43.89390678754556 -4.339158212148126 C-43.79171713918282 -4.728851630629019, -43.68952749082008 -5.118545049109912, -43.57683563421489 -5.548287939305123 M-43.57683563421489 -5.548287939305123 C-43.4357066802315 -5.97334586285791, -43.29457772624811 -6.3984037864106975, -43.18294672997033 -6.734618561215485 M-43.57683563421489 -5.548287939305123 C-43.47869063019794 -5.843885054121359, -43.380545626181 -6.139482168937596, -43.18294672997033 -6.734618561215485 M-43.18294672997033 -6.734618561215485 C-43.076260353134046 -6.998135974641883, -42.96957397629776 -7.261653388068281, -42.71385864880834 -7.893275190886676 M-43.18294672997033 -6.734618561215485 C-43.04467497402609 -7.076152471700311, -42.90640321808184 -7.4176863821851375, -42.71385864880834 -7.893275190886676 M-42.71385864880834 -7.893275190886676 C-42.586636144712315 -8.157455442767587, -42.45941364061629 -8.421635694648497, -42.171498974273504 -9.019496659696282 M-42.71385864880834 -7.893275190886676 C-42.55145887121856 -8.230501803850451, -42.389059093628774 -8.567728416814228, -42.171498974273504 -9.019496659696282 M-42.171498974273504 -9.019496659696282 C-41.996646390016906 -9.32996512878797, -41.82179380576031 -9.640433597879658, -41.55809637860425 -10.108655082055243 M-42.171498974273504 -9.019496659696282 C-42.01188148106498 -9.302913681911862, -41.85226398785645 -9.586330704127443, -41.55809637860425 -10.108655082055243 M-41.55809637860425 -10.108655082055243 C-41.41805961304919 -10.323789159084587, -41.27802284749412 -10.53892323611393, -40.87617146464064 -11.156274872382308 M-41.55809637860425 -10.108655082055243 C-41.285556984568515 -10.52734877836858, -41.01301759053279 -10.946042474681919, -40.87617146464064 -11.156274872382308 M-40.87617146464064 -11.156274872382308 C-40.71189820063276 -11.376386080550645, -40.547624936624885 -11.596497288718982, -40.12852640812659 -12.158051136245302 M-40.87617146464064 -11.156274872382308 C-40.63148193254588 -11.484136553714334, -40.386792400451114 -11.811998235046362, -40.12852640812659 -12.158051136245302 M-40.12852640812659 -12.158051136245302 C-39.94812961774672 -12.369955471093656, -39.767732827366856 -12.58185980594201, -39.31823344296866 -13.10986736009567 M-40.12852640812659 -12.158051136245302 C-39.94685851710612 -12.371448578233784, -39.76519062608565 -12.584846020222265, -39.31823344296866 -13.10986736009567 M-39.31823344296866 -13.10986736009567 C-39.01311803459257 -13.424924069684886, -38.70800262621648 -13.739980779274104, -38.448622236767996 -14.007812326905677 M-39.31823344296866 -13.10986736009567 C-39.01518808074784 -13.422786577075621, -38.71214271852702 -13.735705794055571, -38.448622236767996 -14.007812326905677 M-38.448622236767996 -14.007812326905677 C-38.21549402125759 -14.219533203997656, -37.98236580574718 -14.431254081089635, -37.52326620850189 -14.848196188198107 M-38.448622236767996 -14.007812326905677 C-38.24962102390641 -14.188539963143011, -38.05061981104481 -14.369267599380345, -37.52326620850189 -14.848196188198107 M-37.52326620850189 -14.848196188198107 C-37.21939608425331 -15.090524525962739, -36.91552596000473 -15.332852863727371, -36.54596784457872 -15.627565626425149 M-37.52326620850189 -14.848196188198107 C-37.179907098543474 -15.12201594122029, -36.83654798858506 -15.395835694242475, -36.54596784457872 -15.627565626425149 M-36.54596784457872 -15.627565626425149 C-36.2254619849215 -15.851136639646976, -35.904956125264285 -16.074707652868803, -35.520743073605715 -16.342718045390885 M-36.54596784457872 -15.627565626425149 C-36.318519543168264 -15.786223715410804, -36.09107124175782 -15.94488180439646, -35.520743073605715 -16.342718045390885 M-35.520743073605715 -16.342718045390885 C-35.25815252342672 -16.50190198006275, -34.995561973247725 -16.661085914734617, -34.45180476407679 -16.99071473040609 M-35.520743073605715 -16.342718045390885 C-35.276007707409114 -16.491078062603915, -35.03127234121252 -16.639438079816944, -34.45180476407679 -16.99071473040609 M-34.45180476407679 -16.99071473040609 C-34.18937126564175 -17.12762611844297, -33.926937767206724 -17.264537506479847, -33.34354541279239 -17.56889292409717 M-34.45180476407679 -16.99071473040609 C-34.21281779661695 -17.11539407825143, -33.973830829157116 -17.240073426096767, -33.34354541279239 -17.56889292409717 M-33.34354541279239 -17.56889292409717 C-32.999808994292366 -17.72105483998856, -32.656072575792344 -17.87321675587995, -32.200519095147804 -18.07487676824742 M-33.34354541279239 -17.56889292409717 C-33.08537331639071 -17.68317805277106, -32.82720121998902 -17.797463181444947, -32.200519095147804 -18.07487676824742 M-32.200519095147804 -18.07487676824742 C-31.857325375166514 -18.201175229648506, -31.514131655185224 -18.32747369104959, -31.02742275146062 -18.506587066708033 M-32.200519095147804 -18.07487676824742 C-31.951047037275824 -18.166684791638733, -31.70157497940384 -18.258492815030046, -31.02742275146062 -18.506587066708033 M-31.02742275146062 -18.506587066708033 C-30.762734294711787 -18.585145211293025, -30.49804583796295 -18.663703355878017, -29.829076886235413 -18.862249829261067 M-31.02742275146062 -18.506587066708033 C-30.577766947024642 -18.64004254917315, -30.12811114258866 -18.773498031638265, -29.829076886235413 -18.862249829261067 M-29.829076886235413 -18.862249829261067 C-29.385900031751333 -18.963402054297813, -28.942723177267258 -19.064554279334555, -28.610405759676766 -19.140403561325773 M-29.829076886235413 -18.862249829261067 C-29.403011159618263 -18.95949655102273, -28.976945433001113 -19.05674327278439, -28.610405759676766 -19.140403561325773 M-28.610405759676766 -19.140403561325773 C-28.252596638906457 -19.198251365120743, -27.894787518136145 -19.256099168915714, -27.376417152847882 -19.3399052695533 M-28.610405759676766 -19.140403561325773 C-28.15740911385553 -19.213640545980695, -27.70441246803429 -19.286877530635618, -27.376417152847882 -19.3399052695533 M-27.376417152847882 -19.3399052695533 C-27.114702061344204 -19.36515260967221, -26.852986969840526 -19.39039994979112, -26.132181789623903 -19.45993515863156 M-27.376417152847882 -19.3399052695533 C-26.957490555647183 -19.380318614552305, -26.53856395844649 -19.420731959551308, -26.132181789623903 -19.45993515863156 M-26.132181789623903 -19.45993515863156 C-25.86501317033505 -19.468502736239984, -25.597844551046197 -19.477070313848404, -24.882812500000007 -19.5 M-26.132181789623903 -19.45993515863156 C-25.660240655085218 -19.475069392238524, -25.188299520546533 -19.490203625845485, -24.882812500000007 -19.5 M-24.882812500000007 -19.5 C-24.882812500000004 -19.5, -24.8828125 -19.5, -24.8828125 -19.5 M-24.882812500000007 -19.5 C-24.882812500000004 -19.5, -24.882812500000004 -19.5, -24.8828125 -19.5" stroke="#999" stroke-width="1.3" fill="none" stroke-dasharray="0 0" style=""></path></g><g class="label" style="" transform="translate(-32.0078125, -12)"><rect></rect><foreignObject width="64.015625" height="24"><div xmlns="http://www.w3.org/1999/xhtml" style="display: table-cell; white-space: nowrap; line-height: 1.5; max-width: 200px; text-align: center;"><span class="nodeLabel"><p>流程结束</p></span></div></foreignObject></g></g></g></g></g></svg>