<svg id="container" width="1053.56640625" xmlns="http://www.w3.org/2000/svg" class="flowchart" height="1429.046875" viewBox="0 0 1053.56640625 1429.046875" role="graphics-document document" aria-roledescription="flowchart-v2"><style>#container{font-family:"trebuchet ms",verdana,arial,sans-serif;font-size:16px;fill:#000000;}@keyframes edge-animation-frame{from{stroke-dashoffset:0;}}@keyframes dash{to{stroke-dashoffset:0;}}#container .edge-animation-slow{stroke-dasharray:9,5!important;stroke-dashoffset:900;animation:dash 50s linear infinite;stroke-linecap:round;}#container .edge-animation-fast{stroke-dasharray:9,5!important;stroke-dashoffset:900;animation:dash 20s linear infinite;stroke-linecap:round;}#container .error-icon{fill:#552222;}#container .error-text{fill:#552222;stroke:#552222;}#container .edge-thickness-normal{stroke-width:1px;}#container .edge-thickness-thick{stroke-width:3.5px;}#container .edge-pattern-solid{stroke-dasharray:0;}#container .edge-thickness-invisible{stroke-width:0;fill:none;}#container .edge-pattern-dashed{stroke-dasharray:3;}#container .edge-pattern-dotted{stroke-dasharray:2;}#container .marker{fill:#666;stroke:#666;}#container .marker.cross{stroke:#666;}#container svg{font-family:"trebuchet ms",verdana,arial,sans-serif;font-size:16px;}#container p{margin:0;}#container .label{font-family:"trebuchet ms",verdana,arial,sans-serif;color:#000000;}#container .cluster-label text{fill:#333;}#container .cluster-label span{color:#333;}#container .cluster-label span p{background-color:transparent;}#container .label text,#container span{fill:#000000;color:#000000;}#container .node rect,#container .node circle,#container .node ellipse,#container .node polygon,#container .node path{fill:#eee;stroke:#999;stroke-width:1px;}#container .rough-node .label text,#container .node .label text,#container .image-shape .label,#container .icon-shape .label{text-anchor:middle;}#container .node .katex path{fill:#000;stroke:#000;stroke-width:1px;}#container .rough-node .label,#container .node .label,#container .image-shape .label,#container .icon-shape .label{text-align:center;}#container .node.clickable{cursor:pointer;}#container .root .anchor path{fill:#666!important;stroke-width:0;stroke:#666;}#container .arrowheadPath{fill:#333333;}#container .edgePath .path{stroke:#666;stroke-width:2.0px;}#container .flowchart-link{stroke:#666;fill:none;}#container .edgeLabel{background-color:white;text-align:center;}#container .edgeLabel p{background-color:white;}#container .edgeLabel rect{opacity:0.5;background-color:white;fill:white;}#container .labelBkg{background-color:rgba(255, 255, 255, 0.5);}#container .cluster rect{fill:hsl(0, 0%, 98.9215686275%);stroke:#707070;stroke-width:1px;}#container .cluster text{fill:#333;}#container .cluster span{color:#333;}#container div.mermaidTooltip{position:absolute;text-align:center;max-width:200px;padding:2px;font-family:"trebuchet ms",verdana,arial,sans-serif;font-size:12px;background:hsl(-160, 0%, 93.3333333333%);border:1px solid #707070;border-radius:2px;pointer-events:none;z-index:100;}#container .flowchartTitleText{text-anchor:middle;font-size:18px;fill:#000000;}#container rect.text{fill:none;stroke-width:0;}#container .icon-shape,#container .image-shape{background-color:white;text-align:center;}#container .icon-shape p,#container .image-shape p{background-color:white;padding:2px;}#container .icon-shape rect,#container .image-shape rect{opacity:0.5;background-color:white;fill:white;}#container .label-icon{display:inline-block;height:1em;overflow:visible;vertical-align:-0.125em;}#container .node .label-icon path{fill:currentColor;stroke:revert;stroke-width:revert;}#container :root{--mermaid-font-family:"trebuchet ms",verdana,arial,sans-serif;}</style><g><marker id="container_flowchart-v2-pointEnd" class="marker flowchart-v2" viewBox="0 0 10 10" refX="5" refY="5" markerUnits="userSpaceOnUse" markerWidth="8" markerHeight="8" orient="auto"><path d="M 0 0 L 10 5 L 0 10 z" class="arrowMarkerPath" style="stroke-width: 1; stroke-dasharray: 1, 0;"></path></marker><marker id="container_flowchart-v2-pointStart" class="marker flowchart-v2" viewBox="0 0 10 10" refX="4.5" refY="5" markerUnits="userSpaceOnUse" markerWidth="8" markerHeight="8" orient="auto"><path d="M 0 5 L 10 10 L 10 0 z" class="arrowMarkerPath" style="stroke-width: 1; stroke-dasharray: 1, 0;"></path></marker><marker id="container_flowchart-v2-circleEnd" class="marker flowchart-v2" viewBox="0 0 10 10" refX="11" refY="5" markerUnits="userSpaceOnUse" markerWidth="11" markerHeight="11" orient="auto"><circle cx="5" cy="5" r="5" class="arrowMarkerPath" style="stroke-width: 1; stroke-dasharray: 1, 0;"></circle></marker><marker id="container_flowchart-v2-circleStart" class="marker flowchart-v2" viewBox="0 0 10 10" refX="-1" refY="5" markerUnits="userSpaceOnUse" markerWidth="11" markerHeight="11" orient="auto"><circle cx="5" cy="5" r="5" class="arrowMarkerPath" style="stroke-width: 1; stroke-dasharray: 1, 0;"></circle></marker><marker id="container_flowchart-v2-crossEnd" class="marker cross flowchart-v2" viewBox="0 0 11 11" refX="12" refY="5.2" markerUnits="userSpaceOnUse" markerWidth="11" markerHeight="11" orient="auto"><path d="M 1,1 l 9,9 M 10,1 l -9,9" class="arrowMarkerPath" style="stroke-width: 2; stroke-dasharray: 1, 0;"></path></marker><marker id="container_flowchart-v2-crossStart" class="marker cross flowchart-v2" viewBox="0 0 11 11" refX="-1" refY="5.2" markerUnits="userSpaceOnUse" markerWidth="11" markerHeight="11" orient="auto"><path d="M 1,1 l 9,9 M 10,1 l -9,9" class="arrowMarkerPath" style="stroke-width: 2; stroke-dasharray: 1, 0;"></path></marker><g class="root"><g class="clusters"><g class="cluster" id="P3" data-look="classic"><rect style="" x="537.53515625" y="900.03125" width="508.03125" height="432.015625"></rect><g class="cluster-label" transform="translate(743.54296875, 900.03125)"><foreignObject width="96.015625" height="24"><div xmlns="http://www.w3.org/1999/xhtml" style="display: table-cell; white-space: nowrap; line-height: 1.5; max-width: 200px; text-align: center;"><span class="nodeLabel"><p>预览展示阶段</p></span></div></foreignObject></g></g><g class="cluster" id="P2" data-look="classic"><rect style="" x="312.0234375" y="361.015625" width="618.53515625" height="489.015625"></rect><g class="cluster-label" transform="translate(565.283203125, 361.015625)"><foreignObject width="112.015625" height="24"><div xmlns="http://www.w3.org/1999/xhtml" style="display: table-cell; white-space: nowrap; line-height: 1.5; max-width: 200px; text-align: center;"><span class="nodeLabel"><p>安全与解析阶段</p></span></div></foreignObject></g></g><g class="cluster" id="P1" data-look="classic"><rect style="" x="8" y="8" width="284.0234375" height="457.015625"></rect><g class="cluster-label" transform="translate(102.00390625, 8)"><foreignObject width="96.015625" height="24"><div xmlns="http://www.w3.org/1999/xhtml" style="display: table-cell; white-space: nowrap; line-height: 1.5; max-width: 200px; text-align: center;"><span class="nodeLabel"><p>输入检查阶段</p></span></div></foreignObject></g></g></g><g class="edgePaths"><path d="M163.016,87L163.016,112L163.016,133" id="L_A_B_0" class="edge-thickness-normal edge-pattern-solid edge-thickness-normal edge-pattern-solid flowchart-link" style=";" data-edge="true" data-et="edge" data-id="L_A_B_0" data-points="W3sieCI6MTYzLjAxNTYyNSwieSI6ODd9LHsieCI6MTYzLjAxNTYyNSwieSI6MTEyfSx7IngiOjE2My4wMTU2MjUsInkiOjEzN31d" marker-end="url(#container_flowchart-v2-pointEnd)"></path><path d="M152.627,276.627L145.008,324.016L145.008,361.016L145.008,382.016" id="L_B_C_0" class="edge-thickness-normal edge-pattern-solid edge-thickness-normal edge-pattern-solid flowchart-link" style=";" data-edge="true" data-et="edge" data-id="L_B_C_0" data-points="W3sieCI6MTUyLjYyNjY2ODg3NjE4Njc2LCJ5IjoyNzYuNjI2NjY4ODc2MTg2OH0seyJ4IjoxNDUuMDA3ODEyNSwieSI6MzI0LjAxNTYyNX0seyJ4IjoxNDUuMDA3ODEyNSwieSI6MzYxLjAxNTYyNX0seyJ4IjoxNDUuMDA3ODEyNSwieSI6Mzg2LjAxNTYyNX1d" marker-end="url(#container_flowchart-v2-pointEnd)"></path><path d="M646.543,440.016L646.543,465.016L646.543,490.016L646.543,511.016" id="L_D_E_0" class="edge-thickness-normal edge-pattern-solid edge-thickness-normal edge-pattern-solid flowchart-link" style=";" data-edge="true" data-et="edge" data-id="L_D_E_0" data-points="W3sieCI6NjQ2LjU0Mjk2ODc1LCJ5Ijo0NDAuMDE1NjI1fSx7IngiOjY0Ni41NDI5Njg3NSwieSI6NDY1LjAxNTYyNX0seyJ4Ijo2NDYuNTQyOTY4NzUsInkiOjQ5MC4wMTU2MjV9LHsieCI6NjQ2LjU0Mjk2ODc1LCJ5Ijo1MTUuMDE1NjI1fV0=" marker-end="url(#container_flowchart-v2-pointEnd)"></path><path d="M593.173,643.661L465.031,734.031L465.031,767.031" id="L_E_F_0" class="edge-thickness-normal edge-pattern-solid edge-thickness-normal edge-pattern-solid flowchart-link" style=";" data-edge="true" data-et="edge" data-id="L_E_F_0" data-points="W3sieCI6NTkzLjE3MzIwNDMyODg2NDcsInkiOjY0My42NjE0ODU1Nzg4NjQ3fSx7IngiOjQ2NS4wMzEyNSwieSI6NzM0LjAzMTI1fSx7IngiOjQ2NS4wMzEyNSwieSI6NzcxLjAzMTI1fV0=" marker-end="url(#container_flowchart-v2-pointEnd)"></path><path d="M693.921,649.653L785.551,734.031L785.551,767.031" id="L_E_G_0" class="edge-thickness-normal edge-pattern-solid edge-thickness-normal edge-pattern-solid flowchart-link" style=";" data-edge="true" data-et="edge" data-id="L_E_G_0" data-points="W3sieCI6NjkzLjkyMTQ1ODA2NTEyOTYsInkiOjY0OS42NTI3NjA2ODQ4NzA0fSx7IngiOjc4NS41NTA3ODEyNSwieSI6NzM0LjAzMTI1fSx7IngiOjc4NS41NTA3ODEyNSwieSI6NzcxLjAzMTI1fV0=" marker-end="url(#container_flowchart-v2-pointEnd)"></path><path d="M785.551,979.031L785.551,1004.031L785.551,1025.031" id="L_H_I_0" class="edge-thickness-normal edge-pattern-solid edge-thickness-normal edge-pattern-solid flowchart-link" style=";" data-edge="true" data-et="edge" data-id="L_H_I_0" data-points="W3sieCI6Nzg1LjU1MDc4MTI1LCJ5Ijo5NzkuMDMxMjV9LHsieCI6Nzg1LjU1MDc4MTI1LCJ5IjoxMDA0LjAzMTI1fSx7IngiOjc4NS41NTA3ODEyNSwieSI6MTAyOS4wMzEyNX1d" marker-end="url(#container_flowchart-v2-pointEnd)"></path><path d="M747.551,1141.047L670.543,1216.047L670.543,1249.047" id="L_I_J_0" class="edge-thickness-normal edge-pattern-solid edge-thickness-normal edge-pattern-solid flowchart-link" style=";" data-edge="true" data-et="edge" data-id="L_I_J_0" data-points="W3sieCI6NzQ3LjU1MTI2Mjc3NjE3MTgsInkiOjExNDEuMDQ3MzU2NTI2MTcxOH0seyJ4Ijo2NzAuNTQyOTY4NzUsInkiOjEyMTYuMDQ2ODc1fSx7IngiOjY3MC41NDI5Njg3NSwieSI6MTI1My4wNDY4NzV9XQ==" marker-end="url(#container_flowchart-v2-pointEnd)"></path><path d="M823.55,1141.047L900.559,1216.047L900.559,1249.047" id="L_I_K_0" class="edge-thickness-normal edge-pattern-solid edge-thickness-normal edge-pattern-solid flowchart-link" style=";" data-edge="true" data-et="edge" data-id="L_I_K_0" data-points="W3sieCI6ODIzLjU1MDI5OTcyMzgyODIsInkiOjExNDEuMDQ3MzU2NTI2MTcxOH0seyJ4Ijo5MDAuNTU4NTkzNzUsInkiOjEyMTYuMDQ2ODc1fSx7IngiOjkwMC41NTg1OTM3NSwieSI6MTI1My4wNDY4NzV9XQ==" marker-end="url(#container_flowchart-v2-pointEnd)"></path><path d="M187.567,262.465L217.516,324.016L217.516,361.016L564.564,403.079" id="L_B_D_0" class="edge-thickness-normal edge-pattern-solid edge-thickness-normal edge-pattern-solid flowchart-link" style=";" data-edge="true" data-et="edge" data-id="L_B_D_0" data-points="W3sieCI6MTg3LjU2NjU3OTgxNjMwOTMsInkiOjI2Mi40NjQ2NzAxODM2OTA3fSx7IngiOjIxNy41MTU2MjUsInkiOjMyNC4wMTU2MjV9LHsieCI6MjE3LjUxNTYyNSwieSI6MzYxLjAxNTYyNX0seyJ4Ijo1NjguNTM1MTU2MjUsInkiOjQwMy41NjA3MzUyMTQ3ODQ1M31d" marker-end="url(#container_flowchart-v2-pointEnd)"></path><path d="M785.551,825.031L785.551,850.031L785.551,875.031L785.551,900.031L785.551,921.031" id="L_G_H_0" class="edge-thickness-normal edge-pattern-solid edge-thickness-normal edge-pattern-solid flowchart-link" style=";" data-edge="true" data-et="edge" data-id="L_G_H_0" data-points="W3sieCI6Nzg1LjU1MDc4MTI1LCJ5Ijo4MjUuMDMxMjV9LHsieCI6Nzg1LjU1MDc4MTI1LCJ5Ijo4NTAuMDMxMjV9LHsieCI6Nzg1LjU1MDc4MTI1LCJ5Ijo4NzUuMDMxMjV9LHsieCI6Nzg1LjU1MDc4MTI1LCJ5Ijo5MDAuMDMxMjV9LHsieCI6Nzg1LjU1MDc4MTI1LCJ5Ijo5MjUuMDMxMjV9XQ==" marker-end="url(#container_flowchart-v2-pointEnd)"></path><path d="M145.008,440.016L145.008,465.016L145.008,490.016L145.008,606.023L145.008,734.031L145.008,798.031L145.008,850.031L145.008,875.031L145.008,900.031L145.008,952.031L145.008,1004.031L145.008,1104.039L145.008,1216.047L145.008,1280.047L145.008,1332.047L145.008,1357.047L484.35,1396.552" id="L_C_L_0" class="edge-thickness-normal edge-pattern-solid edge-thickness-normal edge-pattern-solid flowchart-link" style=";" data-edge="true" data-et="edge" data-id="L_C_L_0" data-points="W3sieCI6MTQ1LjAwNzgxMjUsInkiOjQ0MC4wMTU2MjV9LHsieCI6MTQ1LjAwNzgxMjUsInkiOjQ2NS4wMTU2MjV9LHsieCI6MTQ1LjAwNzgxMjUsInkiOjQ5MC4wMTU2MjV9LHsieCI6MTQ1LjAwNzgxMjUsInkiOjYwNi4wMjM0Mzc1fSx7IngiOjE0NS4wMDc4MTI1LCJ5Ijo3MzQuMDMxMjV9LHsieCI6MTQ1LjAwNzgxMjUsInkiOjc5OC4wMzEyNX0seyJ4IjoxNDUuMDA3ODEyNSwieSI6ODUwLjAzMTI1fSx7IngiOjE0NS4wMDc4MTI1LCJ5Ijo4NzUuMDMxMjV9LHsieCI6MTQ1LjAwNzgxMjUsInkiOjkwMC4wMzEyNX0seyJ4IjoxNDUuMDA3ODEyNSwieSI6OTUyLjAzMTI1fSx7IngiOjE0NS4wMDc4MTI1LCJ5IjoxMDA0LjAzMTI1fSx7IngiOjE0NS4wMDc4MTI1LCJ5IjoxMTA0LjAzOTA2MjV9LHsieCI6MTQ1LjAwNzgxMjUsInkiOjEyMTYuMDQ2ODc1fSx7IngiOjE0NS4wMDc4MTI1LCJ5IjoxMjgwLjA0Njg3NX0seyJ4IjoxNDUuMDA3ODEyNSwieSI6MTMzMi4wNDY4NzV9LHsieCI6MTQ1LjAwNzgxMjUsInkiOjEzNTcuMDQ2ODc1fSx7IngiOjQ4OC4zMjMwNTY2Mjg5Njk5NCwieSI6MTM5Ny4wMTQ0MDE5NjkwNzh9XQ==" marker-end="url(#container_flowchart-v2-pointEnd)"></path><path d="M465.031,825.031L465.031,850.031L465.031,875.031L465.031,900.031L465.031,952.031L465.031,1004.031L465.031,1104.039L465.031,1216.047L465.031,1280.047L465.031,1332.047L465.031,1357.047L500.112,1380.671" id="L_F_L_0" class="edge-thickness-normal edge-pattern-solid edge-thickness-normal edge-pattern-solid flowchart-link" style=";" data-edge="true" data-et="edge" data-id="L_F_L_0" data-points="W3sieCI6NDY1LjAzMTI1LCJ5Ijo4MjUuMDMxMjV9LHsieCI6NDY1LjAzMTI1LCJ5Ijo4NTAuMDMxMjV9LHsieCI6NDY1LjAzMTI1LCJ5Ijo4NzUuMDMxMjV9LHsieCI6NDY1LjAzMTI1LCJ5Ijo5MDAuMDMxMjV9LHsieCI6NDY1LjAzMTI1LCJ5Ijo5NTIuMDMxMjV9LHsieCI6NDY1LjAzMTI1LCJ5IjoxMDA0LjAzMTI1fSx7IngiOjQ2NS4wMzEyNSwieSI6MTEwNC4wMzkwNjI1fSx7IngiOjQ2NS4wMzEyNSwieSI6MTIxNi4wNDY4NzV9LHsieCI6NDY1LjAzMTI1LCJ5IjoxMjgwLjA0Njg3NX0seyJ4Ijo0NjUuMDMxMjUsInkiOjEzMzIuMDQ2ODc1fSx7IngiOjQ2NS4wMzEyNSwieSI6MTM1Ny4wNDY4NzV9LHsieCI6NTAzLjQyOTMwMTI0MTIwNjEzLCJ5IjoxMzgyLjkwNTczNTQ4Mzk4Mzh9XQ==" marker-end="url(#container_flowchart-v2-pointEnd)"></path><path d="M670.543,1307.047L670.543,1332.047L670.543,1357.047L575.505,1388.106" id="L_J_L_0" class="edge-thickness-normal edge-pattern-solid edge-thickness-normal edge-pattern-solid flowchart-link" style=";" data-edge="true" data-et="edge" data-id="L_J_L_0" data-points="W3sieCI6NjcwLjU0Mjk2ODc1LCJ5IjoxMzA3LjA0Njg3NX0seyJ4Ijo2NzAuNTQyOTY4NzUsInkiOjEzMzIuMDQ2ODc1fSx7IngiOjY3MC41NDI5Njg3NSwieSI6MTM1Ny4wNDY4NzV9LHsieCI6NTcxLjcwMzMyNzYwMzUwOTYsInkiOjEzODkuMzQ4MDY2MjUzMzI1fV0=" marker-end="url(#container_flowchart-v2-pointEnd)"></path><path d="M900.559,1307.047L900.559,1332.047L900.559,1357.047L579.657,1396.297" id="L_K_L_0" class="edge-thickness-normal edge-pattern-solid edge-thickness-normal edge-pattern-solid flowchart-link" style=";" data-edge="true" data-et="edge" data-id="L_K_L_0" data-points="W3sieCI6OTAwLjU1ODU5Mzc1LCJ5IjoxMzA3LjA0Njg3NX0seyJ4Ijo5MDAuNTU4NTkzNzUsInkiOjEzMzIuMDQ2ODc1fSx7IngiOjkwMC41NTg1OTM3NSwieSI6MTM1Ny4wNDY4NzV9LHsieCI6NTc1LjY4NjU3NTk1MzcxNTUsInkiOjEzOTYuNzgzMDEzNzM5NjU1Nn1d" marker-end="url(#container_flowchart-v2-pointEnd)"></path></g><g class="edgeLabels"><g class="edgeLabel"><g class="label" data-id="L_A_B_0" transform="translate(0, 0)"><foreignObject width="0" height="0"><div xmlns="http://www.w3.org/1999/xhtml" class="labelBkg" style="display: table-cell; white-space: nowrap; line-height: 1.5; max-width: 200px; text-align: center;"><span class="edgeLabel"></span></div></foreignObject></g></g><g class="edgeLabel" transform="translate(145.0078125, 324.015625)"><g class="label" data-id="L_B_C_0" transform="translate(-8.0078125, -12)"><foreignObject width="16.015625" height="24"><div xmlns="http://www.w3.org/1999/xhtml" class="labelBkg" style="display: table-cell; white-space: nowrap; line-height: 1.5; max-width: 200px; text-align: center;"><span class="edgeLabel"><p>是</p></span></div></foreignObject></g></g><g class="edgeLabel"><g class="label" data-id="L_D_E_0" transform="translate(0, 0)"><foreignObject width="0" height="0"><div xmlns="http://www.w3.org/1999/xhtml" class="labelBkg" style="display: table-cell; white-space: nowrap; line-height: 1.5; max-width: 200px; text-align: center;"><span class="edgeLabel"></span></div></foreignObject></g></g><g class="edgeLabel" transform="translate(465.03125, 734.03125)"><g class="label" data-id="L_E_F_0" transform="translate(-8.0078125, -12)"><foreignObject width="16.015625" height="24"><div xmlns="http://www.w3.org/1999/xhtml" class="labelBkg" style="display: table-cell; white-space: nowrap; line-height: 1.5; max-width: 200px; text-align: center;"><span class="edgeLabel"><p>是</p></span></div></foreignObject></g></g><g class="edgeLabel" transform="translate(785.55078125, 734.03125)"><g class="label" data-id="L_E_G_0" transform="translate(-8.0078125, -12)"><foreignObject width="16.015625" height="24"><div xmlns="http://www.w3.org/1999/xhtml" class="labelBkg" style="display: table-cell; white-space: nowrap; line-height: 1.5; max-width: 200px; text-align: center;"><span class="edgeLabel"><p>否</p></span></div></foreignObject></g></g><g class="edgeLabel"><g class="label" data-id="L_H_I_0" transform="translate(0, 0)"><foreignObject width="0" height="0"><div xmlns="http://www.w3.org/1999/xhtml" class="labelBkg" style="display: table-cell; white-space: nowrap; line-height: 1.5; max-width: 200px; text-align: center;"><span class="edgeLabel"></span></div></foreignObject></g></g><g class="edgeLabel" transform="translate(670.54296875, 1216.046875)"><g class="label" data-id="L_I_J_0" transform="translate(-8.0078125, -12)"><foreignObject width="16.015625" height="24"><div xmlns="http://www.w3.org/1999/xhtml" class="labelBkg" style="display: table-cell; white-space: nowrap; line-height: 1.5; max-width: 200px; text-align: center;"><span class="edgeLabel"><p>是</p></span></div></foreignObject></g></g><g class="edgeLabel" transform="translate(900.55859375, 1216.046875)"><g class="label" data-id="L_I_K_0" transform="translate(-8.0078125, -12)"><foreignObject width="16.015625" height="24"><div xmlns="http://www.w3.org/1999/xhtml" class="labelBkg" style="display: table-cell; white-space: nowrap; line-height: 1.5; max-width: 200px; text-align: center;"><span class="edgeLabel"><p>否</p></span></div></foreignObject></g></g><g class="edgeLabel" transform="translate(217.515625, 324.015625)"><g class="label" data-id="L_B_D_0" transform="translate(-8.0078125, -12)"><foreignObject width="16.015625" height="24"><div xmlns="http://www.w3.org/1999/xhtml" class="labelBkg" style="display: table-cell; white-space: nowrap; line-height: 1.5; max-width: 200px; text-align: center;"><span class="edgeLabel"><p>否</p></span></div></foreignObject></g></g><g class="edgeLabel"><g class="label" data-id="L_G_H_0" transform="translate(0, 0)"><foreignObject width="0" height="0"><div xmlns="http://www.w3.org/1999/xhtml" class="labelBkg" style="display: table-cell; white-space: nowrap; line-height: 1.5; max-width: 200px; text-align: center;"><span class="edgeLabel"></span></div></foreignObject></g></g><g class="edgeLabel"><g class="label" data-id="L_C_L_0" transform="translate(0, 0)"><foreignObject width="0" height="0"><div xmlns="http://www.w3.org/1999/xhtml" class="labelBkg" style="display: table-cell; white-space: nowrap; line-height: 1.5; max-width: 200px; text-align: center;"><span class="edgeLabel"></span></div></foreignObject></g></g><g class="edgeLabel"><g class="label" data-id="L_F_L_0" transform="translate(0, 0)"><foreignObject width="0" height="0"><div xmlns="http://www.w3.org/1999/xhtml" class="labelBkg" style="display: table-cell; white-space: nowrap; line-height: 1.5; max-width: 200px; text-align: center;"><span class="edgeLabel"></span></div></foreignObject></g></g><g class="edgeLabel"><g class="label" data-id="L_J_L_0" transform="translate(0, 0)"><foreignObject width="0" height="0"><div xmlns="http://www.w3.org/1999/xhtml" class="labelBkg" style="display: table-cell; white-space: nowrap; line-height: 1.5; max-width: 200px; text-align: center;"><span class="edgeLabel"></span></div></foreignObject></g></g><g class="edgeLabel"><g class="label" data-id="L_K_L_0" transform="translate(0, 0)"><foreignObject width="0" height="0"><div xmlns="http://www.w3.org/1999/xhtml" class="labelBkg" style="display: table-cell; white-space: nowrap; line-height: 1.5; max-width: 200px; text-align: center;"><span class="edgeLabel"></span></div></foreignObject></g></g></g><g class="nodes"><g class="node default" id="flowchart-A-0" transform="translate(163.015625, 60)"><rect class="basic label-container" style="" x="-86.0078125" y="-27" width="172.015625" height="54"></rect><g class="label" style="" transform="translate(-56.0078125, -12)"><rect></rect><foreignObject width="112.015625" height="24"><div xmlns="http://www.w3.org/1999/xhtml" style="display: table-cell; white-space: nowrap; line-height: 1.5; max-width: 200px; text-align: center;"><span class="nodeLabel"><p>加载待预览代码</p></span></div></foreignObject></g></g><g class="node default" id="flowchart-B-1" transform="translate(163.015625, 212.0078125)"><polygon points="75.0078125,0 150.015625,-75.0078125 75.0078125,-150.015625 0,-75.0078125" class="label-container" transform="translate(-74.5078125, 75.0078125)"></polygon><g class="label" style="" transform="translate(-48.0078125, -12)"><rect></rect><foreignObject width="96.015625" height="24"><div xmlns="http://www.w3.org/1999/xhtml" style="display: table-cell; white-space: nowrap; line-height: 1.5; max-width: 200px; text-align: center;"><span class="nodeLabel"><p>代码是否为空</p></span></div></foreignObject></g></g><g class="node default" id="flowchart-C-2" transform="translate(145.0078125, 413.015625)"><rect class="basic label-container" style="" x="-102.0078125" y="-27" width="204.015625" height="54"></rect><g class="label" style="" transform="translate(-72.0078125, -12)"><rect></rect><foreignObject width="144.015625" height="24"><div xmlns="http://www.w3.org/1999/xhtml" style="display: table-cell; white-space: nowrap; line-height: 1.5; max-width: 200px; text-align: center;"><span class="nodeLabel"><p>提示暂无可预览内容</p></span></div></foreignObject></g></g><g class="node default" id="flowchart-D-7" transform="translate(646.54296875, 413.015625)"><rect class="basic label-container" style="" x="-78.0078125" y="-27" width="156.015625" height="54"></rect><g class="label" style="" transform="translate(-48.0078125, -12)"><rect></rect><foreignObject width="96.015625" height="24"><div xmlns="http://www.w3.org/1999/xhtml" style="display: table-cell; white-space: nowrap; line-height: 1.5; max-width: 200px; text-align: center;"><span class="nodeLabel"><p>执行安全检查</p></span></div></foreignObject></g></g><g class="node default" id="flowchart-E-8" transform="translate(646.54296875, 606.0234375)"><polygon points="91.0078125,0 182.015625,-91.0078125 91.0078125,-182.015625 0,-91.0078125" class="label-container" transform="translate(-90.5078125, 91.0078125)"></polygon><g class="label" style="" transform="translate(-64.0078125, -12)"><rect></rect><foreignObject width="128.015625" height="24"><div xmlns="http://www.w3.org/1999/xhtml" style="display: table-cell; white-space: nowrap; line-height: 1.5; max-width: 200px; text-align: center;"><span class="nodeLabel"><p>是否命中风险规则</p></span></div></foreignObject></g></g><g class="node default" id="flowchart-F-9" transform="translate(465.03125, 798.03125)"><rect class="basic label-container" style="" x="-118.0078125" y="-27" width="236.015625" height="54"></rect><g class="label" style="" transform="translate(-88.0078125, -12)"><rect></rect><foreignObject width="176.015625" height="24"><div xmlns="http://www.w3.org/1999/xhtml" style="display: table-cell; white-space: nowrap; line-height: 1.5; max-width: 200px; text-align: center;"><span class="nodeLabel"><p>阻止渲染并提示风险原因</p></span></div></foreignObject></g></g><g class="node default" id="flowchart-G-10" transform="translate(785.55078125, 798.03125)"><rect class="basic label-container" style="" x="-110.0078125" y="-27" width="220.015625" height="54"></rect><g class="label" style="" transform="translate(-80.0078125, -12)"><rect></rect><foreignObject width="160.015625" height="24"><div xmlns="http://www.w3.org/1999/xhtml" style="display: table-cell; white-space: nowrap; line-height: 1.5; max-width: 200px; text-align: center;"><span class="nodeLabel"><p>解析模板、脚本和样式</p></span></div></foreignObject></g></g><g class="node default" id="flowchart-H-17" transform="translate(785.55078125, 952.03125)"><rect class="basic label-container" style="" x="-118.0078125" y="-27" width="236.015625" height="54"></rect><g class="label" style="" transform="translate(-88.0078125, -12)"><rect></rect><foreignObject width="176.015625" height="24"><div xmlns="http://www.w3.org/1999/xhtml" style="display: table-cell; white-space: nowrap; line-height: 1.5; max-width: 200px; text-align: center;"><span class="nodeLabel"><p>构造预览状态并挂载组件</p></span></div></foreignObject></g></g><g class="node default" id="flowchart-I-18" transform="translate(785.55078125, 1104.0390625)"><polygon points="75.0078125,0 150.015625,-75.0078125 75.0078125,-150.015625 0,-75.0078125" class="label-container" transform="translate(-74.5078125, 75.0078125)"></polygon><g class="label" style="" transform="translate(-48.0078125, -12)"><rect></rect><foreignObject width="96.015625" height="24"><div xmlns="http://www.w3.org/1999/xhtml" style="display: table-cell; white-space: nowrap; line-height: 1.5; max-width: 200px; text-align: center;"><span class="nodeLabel"><p>预览是否成功</p></span></div></foreignObject></g></g><g class="node default" id="flowchart-J-19" transform="translate(670.54296875, 1280.046875)"><rect class="basic label-container" style="" x="-78.0078125" y="-27" width="156.015625" height="54"></rect><g class="label" style="" transform="translate(-48.0078125, -12)"><rect></rect><foreignObject width="96.015625" height="24"><div xmlns="http://www.w3.org/1999/xhtml" style="display: table-cell; white-space: nowrap; line-height: 1.5; max-width: 200px; text-align: center;"><span class="nodeLabel"><p>展示预览结果</p></span></div></foreignObject></g></g><g class="node default" id="flowchart-K-20" transform="translate(900.55859375, 1280.046875)"><rect class="basic label-container" style="" x="-102.0078125" y="-27" width="204.015625" height="54"></rect><g class="label" style="" transform="translate(-72.0078125, -12)"><rect></rect><foreignObject width="144.015625" height="24"><div xmlns="http://www.w3.org/1999/xhtml" style="display: table-cell; white-space: nowrap; line-height: 1.5; max-width: 200px; text-align: center;"><span class="nodeLabel"><p>显示解析或运行错误</p></span></div></foreignObject></g></g><g class="node default" id="flowchart-L-32" transform="translate(531.53515625, 1401.546875)"><g class="basic label-container outer-path"><path d="M-24.8828125 -19.5 C-11.652879156886337 -19.5, 1.5770541862273255 -19.5, 24.8828125 -19.5 C24.8828125 -19.5, 24.8828125 -19.5, 24.8828125 -19.5 C25.370928786883276 -19.48434706074037, 25.859045073766552 -19.468694121480738, 26.1321817896239 -19.45993515863156 C26.57587165877892 -19.417132930569313, 27.019561527933934 -19.374330702507066, 27.376417152847864 -19.3399052695533 C27.806407891287687 -19.270387701590327, 28.236398629727514 -19.200870133627358, 28.61040575967676 -19.140403561325776 C28.864617672711855 -19.08238135106328, 29.11882958574695 -19.024359140800783, 29.82907688623539 -18.862249829261074 C30.18666648540165 -18.756119113254638, 30.54425608456791 -18.6499883972482, 31.027422751460602 -18.50658706670804 C31.478998671001055 -18.340402953995113, 31.93057459054151 -18.174218841282183, 32.2005190951478 -18.074876768247425 C32.556631183009344 -17.917236510640876, 32.91274327087089 -17.759596253034324, 33.34354541279238 -17.568892924097174 C33.69599247980437 -17.385021514990143, 34.048439546816354 -17.20115010588311, 34.45180476407678 -16.990714730406097 C34.77445164801229 -16.795124293280843, 35.097098531947786 -16.59953385615559, 35.5207430736057 -16.342718045390892 C35.72963406552471 -16.197004732173486, 35.93852505744373 -16.051291418956076, 36.54596784457871 -15.627565626425154 C36.82930972637977 -15.401608015732949, 37.11265160818082 -15.175650405040741, 37.523266208501866 -14.848196188198123 C37.857828472589624 -14.544355591986058, 38.19239073667738 -14.24051499577399, 38.44862223676799 -14.007812326905688 C38.725804857397776 -13.721598513989052, 39.00298747802756 -13.435384701072417, 39.31823344296865 -13.10986736009568 C39.63337428862695 -12.739684990763331, 39.94851513428525 -12.36950262143098, 40.12852640812658 -12.158051136245305 C40.4179127636665 -11.770299783461152, 40.707299119206425 -11.382548430676996, 40.876171464640635 -11.156274872382312 C41.099145565743086 -10.813726776159237, 41.322119666845545 -10.471178679936164, 41.55809637860425 -10.108655082055241 C41.755366426820984 -9.758382135687947, 41.95263647503772 -9.408109189320655, 42.171498974273504 -9.019496659696287 C42.319208284242094 -8.712775117073576, 42.466917594210685 -8.406053574450864, 42.71385864880834 -7.893275190886684 C42.895237761684804 -7.445265275355238, 43.07661687456127 -6.997255359823792, 43.182946729970325 -6.734618561215508 C43.30017108434282 -6.381557483010005, 43.41739543871532 -6.028496404804503, 43.57683563421488 -5.548287939305138 C43.660443491268666 -5.229454944484599, 43.74405134832245 -4.910621949664059, 43.89390678754556 -4.339158212148133 C43.95582563557203 -4.021218014085341, 44.01774448359851 -3.703277816022549, 44.132857276581774 -3.1121979531509023 C44.18086473556542 -2.739861581418814, 44.22887219454906 -2.3675252096867254, 44.29270520250937 -1.872449005199798 C44.32331354110746 -1.3956994249283166, 44.353921879705545 -0.9189498446568354, 44.37279371591342 -0.6250057626472757 C44.37279371591342 -0.34730283233951775, 44.37279371591342 -0.06959990203175981, 44.37279371591342 0.625005762647271 C44.35631210192144 0.8817202042916752, 44.33983048792946 1.1384346459360792, 44.29270520250937 1.8724490051997846 C44.255593898402694 2.1602769513952604, 44.21848259429601 2.4481048975907362, 44.132857276581774 3.1121979531508885 C44.061535060770964 3.4784224573837714, 43.99021284496015 3.844646961616654, 43.89390678754556 4.339158212148129 C43.78799123248055 4.743060127702972, 43.68207567741553 5.1469620432578145, 43.57683563421489 5.548287939305125 C43.42060192816849 6.01883896945627, 43.264368222122094 6.489389999607414, 43.182946729970325 6.734618561215495 C42.99851970383672 7.190156881419484, 42.814092677703115 7.645695201623474, 42.71385864880834 7.893275190886679 C42.56033133450056 8.21207794400507, 42.40680402019278 8.530880697123461, 42.171498974273504 9.019496659696284 C42.006657519335825 9.312189354945458, 41.84181606439815 9.60488205019463, 41.55809637860425 10.108655082055236 C41.39774944311955 10.354991034140763, 41.237402507634854 10.60132698622629, 40.87617146464064 11.156274872382301 C40.600766295519946 11.525292709076977, 40.32536112639925 11.894310545771653, 40.12852640812658 12.158051136245302 C39.92886884872359 12.39258026635703, 39.729211289320595 12.627109396468756, 39.31823344296866 13.10986736009567 C39.13045893076891 13.303759960516077, 38.94268441856916 13.497652560936482, 38.44862223676799 14.007812326905684 C38.19941536400259 14.234135415098688, 37.95020849123719 14.460458503291692, 37.52326620850189 14.848196188198111 C37.24851209555088 15.06730528176253, 36.97375798259987 15.28641437532695, 36.54596784457871 15.627565626425152 C36.196670050114086 15.87122064698586, 35.84737225564946 16.114875667546567, 35.52074307360571 16.34271804539089 C35.12854391958284 16.58047147737761, 34.73634476555998 16.81822490936433, 34.45180476407678 16.990714730406093 C34.11745269147603 17.165145992519182, 33.78310061887528 17.33957725463227, 33.34354541279239 17.56889292409717 C32.95954589136067 17.738878121293908, 32.57554636992896 17.908863318490646, 32.200519095147804 18.07487676824742 C31.887457699816967 18.190086255636984, 31.574396304486125 18.305295743026548, 31.027422751460616 18.506587066708033 C30.732773200203873 18.594037506873978, 30.438123648947133 18.681487947039926, 29.829076886235413 18.86224982926107 C29.35557547146005 18.970323437298052, 28.882074056684683 19.07839704533503, 28.610405759676766 19.140403561325773 C28.264434895505318 19.19633744760089, 27.91846403133387 19.252271333876006, 27.37641715284788 19.3399052695533 C27.116269875564402 19.36500136451996, 26.856122598280926 19.390097459486622, 26.1321817896239 19.45993515863156 C25.8549680071649 19.468824865071124, 25.577754224705895 19.477714571510692, 24.882812500000004 19.5 C24.882812500000004 19.5, 24.8828125 19.5, 24.8828125 19.5 C11.514321531543423 19.5, -1.8541694369131534 19.5, -24.882812499999996 19.5 C-25.236267240191673 19.48866539443997, -25.589721980383352 19.47733078887994, -26.132181789623893 19.45993515863156 C-26.396877932050863 19.434400240115316, -26.661574074477837 19.408865321599073, -27.37641715284787 19.3399052695533 C-27.770317097246753 19.27622258128258, -28.16421704164564 19.212539893011858, -28.61040575967676 19.140403561325773 C-28.904033143197875 19.073385027134826, -29.19766052671899 19.006366492943876, -29.829076886235388 18.862249829261074 C-30.08334692755539 18.786783815687983, -30.33761696887539 18.711317802114888, -31.02742275146059 18.506587066708043 C-31.375412409240738 18.378523655863816, -31.723402067020885 18.25046024501959, -32.2005190951478 18.074876768247425 C-32.556203092451206 17.91742601363211, -32.91188708975461 17.759975259016795, -33.34354541279238 17.568892924097174 C-33.661988329426656 17.402761458461494, -33.98043124606094 17.236629992825815, -34.45180476407678 16.990714730406097 C-34.76335376740198 16.801851893725196, -35.07490277072717 16.612989057044295, -35.520743073605686 16.3427180453909 C-35.844294000229134 16.117022925272256, -36.16784492685258 15.891327805153614, -36.54596784457871 15.627565626425156 C-36.77223669988579 15.44712223558488, -36.99850555519286 15.266678844744606, -37.523266208501866 14.848196188198125 C-37.75779827891492 14.635200367227531, -37.992330349327965 14.422204546256939, -38.448622236767974 14.007812326905697 C-38.71735143697738 13.730327364611831, -38.98608063718679 13.452842402317966, -39.318233442968655 13.109867360095677 C-39.50379235993824 12.891899297621716, -39.68935127690782 12.673931235147755, -40.128526408126575 12.158051136245307 C-40.42105177178088 11.766093798557398, -40.713577135435195 11.374136460869488, -40.876171464640635 11.156274872382316 C-41.11580928676249 10.788126825837812, -41.35544710888435 10.419978779293308, -41.55809637860425 10.108655082055249 C-41.738194030472044 9.788873464299192, -41.918291682339834 9.469091846543133, -42.171498974273504 9.019496659696289 C-42.360515262758135 8.62700029235727, -42.54953155124276 8.234503925018249, -42.71385864880834 7.893275190886686 C-42.862352109636056 7.526493471716465, -43.01084557046378 7.159711752546245, -43.182946729970325 6.73461856121551 C-43.302665065120635 6.374046010269117, -43.42238340027094 6.013473459322723, -43.57683563421488 5.5482879393051325 C-43.69879480925152 5.083204747449621, -43.82075398428815 4.618121555594109, -43.89390678754556 4.339158212148136 C-43.95932378421578 4.003255760133662, -44.02474078088601 3.6673533081191874, -44.132857276581774 3.112197953150904 C-44.17273712367255 2.802897734281447, -44.212616970763314 2.49359751541199, -44.29270520250937 1.872449005199809 C-44.30914064252164 1.616453760560253, -44.325576082533914 1.3604585159206968, -44.37279371591342 0.6250057626472781 C-44.37279371591342 0.24289174096310245, -44.37279371591342 -0.13922228072107323, -44.37279371591342 -0.6250057626472687 C-44.34803676796215 -1.0106152104369632, -44.32327982001088 -1.3962246582266578, -44.29270520250937 -1.8724490051997822 C-44.25882164162008 -2.135243212391174, -44.224938080730794 -2.3980374195825656, -44.132857276581774 -3.112197953150895 C-44.03777301432436 -3.600435543776785, -43.94268875206694 -4.088673134402675, -43.89390678754556 -4.339158212148126 C-43.82188536738911 -4.613807101485626, -43.74986394723266 -4.888455990823124, -43.57683563421489 -5.548287939305123 C-43.48536467562952 -5.823783892646188, -43.39389371704414 -6.099279845987253, -43.18294672997033 -6.734618561215485 C-43.0240060759173 -7.127205049634969, -42.86506542186427 -7.519791538054452, -42.71385864880834 -7.893275190886676 C-42.51068194930165 -8.315175954697278, -42.30750524979495 -8.737076718507879, -42.171498974273504 -9.019496659696282 C-42.00353538111201 -9.317733027512627, -41.835571787950514 -9.615969395328971, -41.55809637860425 -10.108655082055243 C-41.374482635918504 -10.390735098014112, -41.19086889323277 -10.67281511397298, -40.87617146464064 -11.156274872382308 C-40.674176972724766 -11.426929089472806, -40.47218248080888 -11.697583306563304, -40.12852640812659 -12.158051136245302 C-39.90439993516512 -12.42132284454344, -39.680273462203644 -12.684594552841578, -39.31823344296866 -13.10986736009567 C-38.98580026559558 -13.453131909004824, -38.653367088222495 -13.796396457913978, -38.448622236767996 -14.007812326905677 C-38.13455566583305 -14.29303927688269, -37.8204890948981 -14.578266226859704, -37.52326620850189 -14.848196188198107 C-37.29855511498126 -15.027397305467474, -37.07384402146063 -15.206598422736839, -36.54596784457872 -15.627565626425149 C-36.15623905975644 -15.89942355562999, -35.76651027493416 -16.171281484834832, -35.520743073605715 -16.342718045390885 C-35.27306902824048 -16.49285950718554, -35.02539498287524 -16.643000968980196, -34.45180476407679 -16.99071473040609 C-34.18819610531235 -17.12823919883409, -33.92458744654792 -17.265763667262096, -33.34354541279239 -17.56889292409717 C-33.06583796790291 -17.691825772051082, -32.78813052301343 -17.814758620004998, -32.200519095147804 -18.07487676824742 C-31.738039170344038 -18.245073655692767, -31.275559245540276 -18.415270543138114, -31.02742275146062 -18.506587066708033 C-30.559904926513653 -18.64534390310115, -30.09238710156669 -18.78410073949427, -29.829076886235413 -18.862249829261067 C-29.53213645050855 -18.930024545998293, -29.235196014781682 -18.997799262735516, -28.610405759676766 -19.140403561325773 C-28.1585683656661 -19.213453127138095, -27.706730971655432 -19.286502692950418, -27.376417152847882 -19.3399052695533 C-27.118131287866213 -19.36482179631388, -26.859845422884547 -19.38973832307446, -26.132181789623903 -19.45993515863156 C-25.69462851471404 -19.473966640512135, -25.257075239804177 -19.48799812239271, -24.882812500000007 -19.5 C-24.882812500000004 -19.5, -24.882812500000004 -19.5, -24.8828125 -19.5" stroke="none" stroke-width="0" fill="#eee" style=""></path><path d="M-24.8828125 -19.5 C-14.155090366168213 -19.5, -3.427368232336427 -19.5, 24.8828125 -19.5 M-24.8828125 -19.5 C-13.45152533431931 -19.5, -2.0202381686386204 -19.5, 24.8828125 -19.5 M24.8828125 -19.5 C24.8828125 -19.5, 24.8828125 -19.5, 24.8828125 -19.5 M24.8828125 -19.5 C24.8828125 -19.5, 24.8828125 -19.5, 24.8828125 -19.5 M24.8828125 -19.5 C25.24869360264941 -19.488266905182396, 25.61457470529882 -19.476533810364792, 26.1321817896239 -19.45993515863156 M24.8828125 -19.5 C25.266786788325604 -19.487686691934012, 25.65076107665121 -19.47537338386802, 26.1321817896239 -19.45993515863156 M26.1321817896239 -19.45993515863156 C26.50211067601698 -19.424248563865795, 26.87203956241006 -19.38856196910003, 27.376417152847864 -19.3399052695533 M26.1321817896239 -19.45993515863156 C26.411372465955626 -19.433001969861753, 26.690563142287353 -19.406068781091943, 27.376417152847864 -19.3399052695533 M27.376417152847864 -19.3399052695533 C27.639496586437986 -19.297372626941925, 27.90257602002811 -19.254839984330555, 28.61040575967676 -19.140403561325776 M27.376417152847864 -19.3399052695533 C27.839896426298434 -19.26497353495726, 28.303375699749008 -19.190041800361218, 28.61040575967676 -19.140403561325776 M28.61040575967676 -19.140403561325776 C28.99976155209742 -19.051535642489753, 29.389117344518084 -18.96266772365373, 29.82907688623539 -18.862249829261074 M28.61040575967676 -19.140403561325776 C29.004216256835846 -19.050518885202873, 29.39802675399493 -18.96063420907997, 29.82907688623539 -18.862249829261074 M29.82907688623539 -18.862249829261074 C30.248007821500998 -18.737913326687597, 30.6669387567666 -18.613576824114116, 31.027422751460602 -18.50658706670804 M29.82907688623539 -18.862249829261074 C30.26119244756994 -18.734000198877848, 30.693308008904488 -18.60575056849462, 31.027422751460602 -18.50658706670804 M31.027422751460602 -18.50658706670804 C31.357539619408744 -18.385101007736246, 31.687656487356886 -18.263614948764456, 32.2005190951478 -18.074876768247425 M31.027422751460602 -18.50658706670804 C31.3164301939644 -18.40022965631113, 31.6054376364682 -18.29387224591422, 32.2005190951478 -18.074876768247425 M32.2005190951478 -18.074876768247425 C32.49055830956525 -17.946485011732424, 32.780597523982706 -17.81809325521742, 33.34354541279238 -17.568892924097174 M32.2005190951478 -18.074876768247425 C32.654356142915226 -17.87397656979848, 33.108193190682655 -17.67307637134953, 33.34354541279238 -17.568892924097174 M33.34354541279238 -17.568892924097174 C33.756327729108435 -17.35354465407478, 34.16911004542449 -17.13819638405239, 34.45180476407678 -16.990714730406097 M33.34354541279238 -17.568892924097174 C33.60596097289955 -17.43199089447445, 33.868376533006725 -17.295088864851728, 34.45180476407678 -16.990714730406097 M34.45180476407678 -16.990714730406097 C34.70293205623251 -16.838479890113515, 34.95405934838824 -16.686245049820933, 35.5207430736057 -16.342718045390892 M34.45180476407678 -16.990714730406097 C34.70912879458029 -16.834723390911016, 34.96645282508379 -16.678732051415935, 35.5207430736057 -16.342718045390892 M35.5207430736057 -16.342718045390892 C35.800601707204336 -16.147500777477475, 36.08046034080297 -15.952283509564056, 36.54596784457871 -15.627565626425154 M35.5207430736057 -16.342718045390892 C35.85102283206379 -16.112329183470838, 36.181302590521874 -15.881940321550783, 36.54596784457871 -15.627565626425154 M36.54596784457871 -15.627565626425154 C36.91577662906003 -15.332652961826351, 37.28558541354135 -15.03774029722755, 37.523266208501866 -14.848196188198123 M36.54596784457871 -15.627565626425154 C36.83709698199648 -15.395397886606192, 37.12822611941425 -15.163230146787232, 37.523266208501866 -14.848196188198123 M37.523266208501866 -14.848196188198123 C37.827479908042235 -14.57191735532898, 38.1316936075826 -14.295638522459836, 38.44862223676799 -14.007812326905688 M37.523266208501866 -14.848196188198123 C37.85879226220732 -14.543480303755741, 38.19431831591277 -14.23876441931336, 38.44862223676799 -14.007812326905688 M38.44862223676799 -14.007812326905688 C38.74554140070315 -13.70121891262592, 39.0424605646383 -13.394625498346151, 39.31823344296865 -13.10986736009568 M38.44862223676799 -14.007812326905688 C38.66770375367406 -13.781592673773117, 38.886785270580134 -13.555373020640546, 39.31823344296865 -13.10986736009568 M39.31823344296865 -13.10986736009568 C39.60067231572737 -12.77809858892615, 39.88311118848609 -12.44632981775662, 40.12852640812658 -12.158051136245305 M39.31823344296865 -13.10986736009568 C39.596705874581595 -12.782757796392868, 39.87517830619455 -12.455648232690057, 40.12852640812658 -12.158051136245305 M40.12852640812658 -12.158051136245305 C40.36561742182284 -11.840370777328008, 40.6027084355191 -11.52269041841071, 40.876171464640635 -11.156274872382312 M40.12852640812658 -12.158051136245305 C40.4241749335818 -11.761909046270068, 40.719823459037016 -11.36576695629483, 40.876171464640635 -11.156274872382312 M40.876171464640635 -11.156274872382312 C41.11981414333325 -10.781974290690554, 41.36345682202587 -10.407673708998795, 41.55809637860425 -10.108655082055241 M40.876171464640635 -11.156274872382312 C41.04751027245854 -10.893052452661978, 41.21884908027644 -10.629830032941642, 41.55809637860425 -10.108655082055241 M41.55809637860425 -10.108655082055241 C41.69273983551761 -9.869581990177121, 41.82738329243097 -9.630508898299, 42.171498974273504 -9.019496659696287 M41.55809637860425 -10.108655082055241 C41.760196488178565 -9.749805872650816, 41.96229659775288 -9.390956663246389, 42.171498974273504 -9.019496659696287 M42.171498974273504 -9.019496659696287 C42.309573579307724 -8.732781788019448, 42.44764818434195 -8.446066916342607, 42.71385864880834 -7.893275190886684 M42.171498974273504 -9.019496659696287 C42.31134486852455 -8.72910366806119, 42.4511907627756 -8.438710676426094, 42.71385864880834 -7.893275190886684 M42.71385864880834 -7.893275190886684 C42.87912026472732 -7.485075804450823, 43.0443818806463 -7.076876418014963, 43.182946729970325 -6.734618561215508 M42.71385864880834 -7.893275190886684 C42.89867819781458 -7.43676733159838, 43.08349774682082 -6.980259472310077, 43.182946729970325 -6.734618561215508 M43.182946729970325 -6.734618561215508 C43.29949204599823 -6.383602638313862, 43.41603736202613 -6.032586715412215, 43.57683563421488 -5.548287939305138 M43.182946729970325 -6.734618561215508 C43.28780766374063 -6.41879413602025, 43.392668597510934 -6.1029697108249925, 43.57683563421488 -5.548287939305138 M43.57683563421488 -5.548287939305138 C43.67001192851936 -5.192966346260755, 43.76318822282384 -4.837644753216373, 43.89390678754556 -4.339158212148133 M43.57683563421488 -5.548287939305138 C43.658968047825226 -5.235081449795648, 43.74110046143558 -4.921874960286158, 43.89390678754556 -4.339158212148133 M43.89390678754556 -4.339158212148133 C43.97157194389611 -3.9403640488246716, 44.04923710024666 -3.54156988550121, 44.132857276581774 -3.1121979531509023 M43.89390678754556 -4.339158212148133 C43.95146428910801 -4.043612606407226, 44.00902179067045 -3.7480670006663184, 44.132857276581774 -3.1121979531509023 M44.132857276581774 -3.1121979531509023 C44.17645323463088 -2.7740763115177107, 44.22004919267999 -2.4359546698845187, 44.29270520250937 -1.872449005199798 M44.132857276581774 -3.1121979531509023 C44.18925041394166 -2.6748239158722087, 44.24564355130154 -2.237449878593515, 44.29270520250937 -1.872449005199798 M44.29270520250937 -1.872449005199798 C44.32260227827771 -1.4067779176227138, 44.352499354046046 -0.9411068300456293, 44.37279371591342 -0.6250057626472757 M44.29270520250937 -1.872449005199798 C44.311292894875315 -1.5829306928849833, 44.329880587241256 -1.2934123805701685, 44.37279371591342 -0.6250057626472757 M44.37279371591342 -0.6250057626472757 C44.37279371591342 -0.3416381348525578, 44.37279371591342 -0.05827050705783987, 44.37279371591342 0.625005762647271 M44.37279371591342 -0.6250057626472757 C44.37279371591342 -0.13473059202189958, 44.37279371591342 0.35554457860347655, 44.37279371591342 0.625005762647271 M44.37279371591342 0.625005762647271 C44.35566384200917 0.8918173756912001, 44.33853396810493 1.158628988735129, 44.29270520250937 1.8724490051997846 M44.37279371591342 0.625005762647271 C44.356321084528105 0.8815802929421868, 44.3398484531428 1.1381548232371024, 44.29270520250937 1.8724490051997846 M44.29270520250937 1.8724490051997846 C44.23036809309733 2.3559233159448936, 44.168030983685306 2.839397626690002, 44.132857276581774 3.1121979531508885 M44.29270520250937 1.8724490051997846 C44.23456186763613 2.3233972287764484, 44.176418532762895 2.7743454523531117, 44.132857276581774 3.1121979531508885 M44.132857276581774 3.1121979531508885 C44.057451893696765 3.4993886573320894, 43.98204651081176 3.8865793615132906, 43.89390678754556 4.339158212148129 M44.132857276581774 3.1121979531508885 C44.04164745248104 3.5805411227050397, 43.9504376283803 4.04888429225919, 43.89390678754556 4.339158212148129 M43.89390678754556 4.339158212148129 C43.812001791009145 4.651497461791524, 43.730096794472736 4.96383671143492, 43.57683563421489 5.548287939305125 M43.89390678754556 4.339158212148129 C43.7759347924052 4.789036559004443, 43.657962797264844 5.238914905860758, 43.57683563421489 5.548287939305125 M43.57683563421489 5.548287939305125 C43.43189643063908 5.984821727549444, 43.28695722706327 6.421355515793762, 43.182946729970325 6.734618561215495 M43.57683563421489 5.548287939305125 C43.492368206022995 5.80269037496206, 43.4079007778311 6.057092810618993, 43.182946729970325 6.734618561215495 M43.182946729970325 6.734618561215495 C43.07241553464498 7.007632750644381, 42.96188433931964 7.280646940073268, 42.71385864880834 7.893275190886679 M43.182946729970325 6.734618561215495 C43.001919693755724 7.181758840585204, 42.82089265754113 7.628899119954913, 42.71385864880834 7.893275190886679 M42.71385864880834 7.893275190886679 C42.56201150038857 8.208589043588823, 42.4101643519688 8.523902896290968, 42.171498974273504 9.019496659696284 M42.71385864880834 7.893275190886679 C42.552158647613105 8.229048703194353, 42.390458646417876 8.564822215502028, 42.171498974273504 9.019496659696284 M42.171498974273504 9.019496659696284 C42.01336785811586 9.30027446894602, 41.85523674195822 9.581052278195756, 41.55809637860425 10.108655082055236 M42.171498974273504 9.019496659696284 C41.92994966132031 9.448391924364916, 41.68840034836711 9.87728718903355, 41.55809637860425 10.108655082055236 M41.55809637860425 10.108655082055236 C41.30815839816323 10.492626937757764, 41.058220417722204 10.87659879346029, 40.87617146464064 11.156274872382301 M41.55809637860425 10.108655082055236 C41.335150755147716 10.451159428966859, 41.112205131691184 10.793663775878484, 40.87617146464064 11.156274872382301 M40.87617146464064 11.156274872382301 C40.688532949597054 11.407693388320325, 40.50089443455347 11.65911190425835, 40.12852640812658 12.158051136245302 M40.87617146464064 11.156274872382301 C40.676200269159025 11.424218056576981, 40.476229073677416 11.692161240771659, 40.12852640812658 12.158051136245302 M40.12852640812658 12.158051136245302 C39.889768500133044 12.43850976068434, 39.651010592139514 12.718968385123379, 39.31823344296866 13.10986736009567 M40.12852640812658 12.158051136245302 C39.83550406137583 12.502251858182605, 39.542481714625076 12.846452580119909, 39.31823344296866 13.10986736009567 M39.31823344296866 13.10986736009567 C39.107182371607855 13.32779491889091, 38.89613130024705 13.545722477686152, 38.44862223676799 14.007812326905684 M39.31823344296866 13.10986736009567 C39.08773055109229 13.347880520597391, 38.85722765921593 13.585893681099114, 38.44862223676799 14.007812326905684 M38.44862223676799 14.007812326905684 C38.12840231796873 14.298627584604404, 37.80818239916947 14.589442842303121, 37.52326620850189 14.848196188198111 M38.44862223676799 14.007812326905684 C38.08584316920179 14.337278677461171, 37.72306410163558 14.66674502801666, 37.52326620850189 14.848196188198111 M37.52326620850189 14.848196188198111 C37.19691438834533 15.108453080186305, 36.87056256818876 15.3687099721745, 36.54596784457871 15.627565626425152 M37.52326620850189 14.848196188198111 C37.271010242483314 15.049363608284748, 37.01875427646474 15.250531028371384, 36.54596784457871 15.627565626425152 M36.54596784457871 15.627565626425152 C36.20532080255606 15.865186256567378, 35.86467376053341 16.102806886709605, 35.52074307360571 16.34271804539089 M36.54596784457871 15.627565626425152 C36.27917699829768 15.813667371601206, 36.01238615201665 15.999769116777257, 35.52074307360571 16.34271804539089 M35.52074307360571 16.34271804539089 C35.14003560063583 16.573505152790677, 34.759328127665945 16.804292260190465, 34.45180476407678 16.990714730406093 M35.52074307360571 16.34271804539089 C35.213444372885114 16.52900432365533, 34.90614567216452 16.71529060191977, 34.45180476407678 16.990714730406093 M34.45180476407678 16.990714730406093 C34.14198109213982 17.15234954160407, 33.83215742020287 17.313984352802052, 33.34354541279239 17.56889292409717 M34.45180476407678 16.990714730406093 C34.11426075778528 17.16681122228112, 33.77671675149377 17.34290771415614, 33.34354541279239 17.56889292409717 M33.34354541279239 17.56889292409717 C33.056813779462246 17.695820512580724, 32.770082146132104 17.82274810106428, 32.200519095147804 18.07487676824742 M33.34354541279239 17.56889292409717 C33.02416722566922 17.71027217351929, 32.704789038546046 17.85165142294141, 32.200519095147804 18.07487676824742 M32.200519095147804 18.07487676824742 C31.862927571139497 18.199113569744316, 31.525336047131194 18.32335037124121, 31.027422751460616 18.506587066708033 M32.200519095147804 18.07487676824742 C31.77986182542619 18.22968253201815, 31.35920455570458 18.384488295788877, 31.027422751460616 18.506587066708033 M31.027422751460616 18.506587066708033 C30.715364438200243 18.5992043360562, 30.40330612493987 18.691821605404368, 29.829076886235413 18.86224982926107 M31.027422751460616 18.506587066708033 C30.68474682684841 18.608291482390303, 30.342070902236202 18.709995898072574, 29.829076886235413 18.86224982926107 M29.829076886235413 18.86224982926107 C29.430237067864496 18.953282415131184, 29.03139724949358 19.044315001001298, 28.610405759676766 19.140403561325773 M29.829076886235413 18.86224982926107 C29.491321594382356 18.93934027056727, 29.153566302529303 19.016430711873472, 28.610405759676766 19.140403561325773 M28.610405759676766 19.140403561325773 C28.2607354024807 19.196935552943113, 27.91106504528464 19.253467544560454, 27.37641715284788 19.3399052695533 M28.610405759676766 19.140403561325773 C28.34313107532327 19.18361445954591, 28.07585639096978 19.226825357766053, 27.37641715284788 19.3399052695533 M27.37641715284788 19.3399052695533 C27.072880598166577 19.369187075927286, 26.769344043485276 19.398468882301277, 26.1321817896239 19.45993515863156 M27.37641715284788 19.3399052695533 C27.007378969844734 19.375505939234262, 26.63834078684159 19.411106608915226, 26.1321817896239 19.45993515863156 M26.1321817896239 19.45993515863156 C25.780550137936682 19.471211301291678, 25.42891848624946 19.482487443951797, 24.882812500000004 19.5 M26.1321817896239 19.45993515863156 C25.845330406344 19.469133924171, 25.558479023064102 19.478332689710438, 24.882812500000004 19.5 M24.882812500000004 19.5 C24.882812500000004 19.5, 24.882812500000004 19.5, 24.8828125 19.5 M24.882812500000004 19.5 C24.882812500000004 19.5, 24.8828125 19.5, 24.8828125 19.5 M24.8828125 19.5 C14.319389883600799 19.5, 3.755967267201598 19.5, -24.882812499999996 19.5 M24.8828125 19.5 C13.584323837874571 19.5, 2.285835175749142 19.5, -24.882812499999996 19.5 M-24.882812499999996 19.5 C-25.193757561098867 19.490028597108406, -25.504702622197733 19.48005719421681, -26.132181789623893 19.45993515863156 M-24.882812499999996 19.5 C-25.161022024109652 19.491078362063792, -25.439231548219308 19.48215672412758, -26.132181789623893 19.45993515863156 M-26.132181789623893 19.45993515863156 C-26.3838567378647 19.435656379058177, -26.63553168610551 19.411377599484798, -27.37641715284787 19.3399052695533 M-26.132181789623893 19.45993515863156 C-26.52774464594125 19.42177568561656, -26.92330750225861 19.383616212601563, -27.37641715284787 19.3399052695533 M-27.37641715284787 19.3399052695533 C-27.688956138458753 19.289376390135764, -28.00149512406964 19.238847510718227, -28.61040575967676 19.140403561325773 M-27.37641715284787 19.3399052695533 C-27.830359630956135 19.26651537006925, -28.2843021090644 19.193125470585198, -28.61040575967676 19.140403561325773 M-28.61040575967676 19.140403561325773 C-28.87289031886484 19.080493173562918, -29.135374878052925 19.020582785800062, -29.829076886235388 18.862249829261074 M-28.61040575967676 19.140403561325773 C-29.000110110268324 19.051456086361796, -29.38981446085989 18.962508611397823, -29.829076886235388 18.862249829261074 M-29.829076886235388 18.862249829261074 C-30.17298438213167 18.76017988968634, -30.516891878027952 18.65810995011161, -31.02742275146059 18.506587066708043 M-29.829076886235388 18.862249829261074 C-30.149945043634766 18.76701784441627, -30.47081320103414 18.67178585957146, -31.02742275146059 18.506587066708043 M-31.02742275146059 18.506587066708043 C-31.32836036410314 18.395839243418788, -31.629297976745693 18.285091420129532, -32.2005190951478 18.074876768247425 M-31.02742275146059 18.506587066708043 C-31.382285974917448 18.375994120156243, -31.737149198374304 18.245401173604442, -32.2005190951478 18.074876768247425 M-32.2005190951478 18.074876768247425 C-32.49469566993153 17.944653525028706, -32.78887224471527 17.814430281809983, -33.34354541279238 17.568892924097174 M-32.2005190951478 18.074876768247425 C-32.506175869242185 17.93957158134189, -32.81183264333657 17.80426639443636, -33.34354541279238 17.568892924097174 M-33.34354541279238 17.568892924097174 C-33.633450220278064 17.417649771724783, -33.92335502776375 17.266406619352395, -34.45180476407678 16.990714730406097 M-33.34354541279238 17.568892924097174 C-33.76110816181613 17.351050705393188, -34.17867091083989 17.133208486689202, -34.45180476407678 16.990714730406097 M-34.45180476407678 16.990714730406097 C-34.67446618348337 16.855736069458082, -34.89712760288995 16.720757408510067, -35.520743073605686 16.3427180453909 M-34.45180476407678 16.990714730406097 C-34.837468245424986 16.756923261602633, -35.22313172677319 16.523131792799166, -35.520743073605686 16.3427180453909 M-35.520743073605686 16.3427180453909 C-35.85314314021876 16.110850148288588, -36.18554320683183 15.878982251186278, -36.54596784457871 15.627565626425156 M-35.520743073605686 16.3427180453909 C-35.7630163774743 16.173718676454445, -36.005289681342916 16.00471930751799, -36.54596784457871 15.627565626425156 M-36.54596784457871 15.627565626425156 C-36.87578059278496 15.364548736416495, -37.20559334099122 15.101531846407834, -37.523266208501866 14.848196188198125 M-36.54596784457871 15.627565626425156 C-36.882215857001086 15.35941678445371, -37.218463869423466 15.091267942482263, -37.523266208501866 14.848196188198125 M-37.523266208501866 14.848196188198125 C-37.75975713504218 14.633421385921245, -37.99624806158249 14.418646583644366, -38.448622236767974 14.007812326905697 M-37.523266208501866 14.848196188198125 C-37.73480704606271 14.656080396589218, -37.94634788362356 14.463964604980308, -38.448622236767974 14.007812326905697 M-38.448622236767974 14.007812326905697 C-38.73079500935591 13.716445772393183, -39.01296778194384 13.425079217880668, -39.318233442968655 13.109867360095677 M-38.448622236767974 14.007812326905697 C-38.70902895119062 13.738921014475451, -38.96943566561327 13.470029702045206, -39.318233442968655 13.109867360095677 M-39.318233442968655 13.109867360095677 C-39.61539407978968 12.760805567166452, -39.91255471661071 12.411743774237227, -40.128526408126575 12.158051136245307 M-39.318233442968655 13.109867360095677 C-39.63333485124472 12.739731316156549, -39.94843625952079 12.36959527221742, -40.128526408126575 12.158051136245307 M-40.128526408126575 12.158051136245307 C-40.28380450961157 11.949992626381471, -40.439082611096566 11.741934116517637, -40.876171464640635 11.156274872382316 M-40.128526408126575 12.158051136245307 C-40.30226127471152 11.925262242593437, -40.475996141296456 11.692473348941567, -40.876171464640635 11.156274872382316 M-40.876171464640635 11.156274872382316 C-41.05114580891004 10.887467292394245, -41.22612015317945 10.618659712406174, -41.55809637860425 10.108655082055249 M-40.876171464640635 11.156274872382316 C-41.09288224676862 10.823348916040663, -41.30959302889661 10.49042295969901, -41.55809637860425 10.108655082055249 M-41.55809637860425 10.108655082055249 C-41.80094010821527 9.677461449536736, -42.0437838378263 9.246267817018225, -42.171498974273504 9.019496659696289 M-41.55809637860425 10.108655082055249 C-41.74911193294924 9.769487622893418, -41.94012748729423 9.43032016373159, -42.171498974273504 9.019496659696289 M-42.171498974273504 9.019496659696289 C-42.31971483680093 8.711723249846674, -42.46793069932835 8.40394983999706, -42.71385864880834 7.893275190886686 M-42.171498974273504 9.019496659696289 C-42.36450865707672 8.618707923609763, -42.55751833987994 8.21791918752324, -42.71385864880834 7.893275190886686 M-42.71385864880834 7.893275190886686 C-42.88149868507619 7.4792010602055, -43.04913872134403 7.065126929524314, -43.182946729970325 6.73461856121551 M-42.71385864880834 7.893275190886686 C-42.89107075922292 7.455557851999596, -43.06828286963751 7.017840513112505, -43.182946729970325 6.73461856121551 M-43.182946729970325 6.73461856121551 C-43.2692017116303 6.474832299320678, -43.35545669329027 6.2150460374258465, -43.57683563421488 5.5482879393051325 M-43.182946729970325 6.73461856121551 C-43.30284454647594 6.373505441023414, -43.422742362981545 6.012392320831318, -43.57683563421488 5.5482879393051325 M-43.57683563421488 5.5482879393051325 C-43.660272986835125 5.230105151786763, -43.743710339455376 4.911922364268392, -43.89390678754556 4.339158212148136 M-43.57683563421488 5.5482879393051325 C-43.67123320712409 5.188309081635413, -43.765630780033305 4.828330223965694, -43.89390678754556 4.339158212148136 M-43.89390678754556 4.339158212148136 C-43.96717387603848 3.9629471977416237, -44.0404409645314 3.586736183335112, -44.132857276581774 3.112197953150904 M-43.89390678754556 4.339158212148136 C-43.98053094816033 3.8943614554141344, -44.06715510877509 3.449564698680133, -44.132857276581774 3.112197953150904 M-44.132857276581774 3.112197953150904 C-44.17179119519659 2.8102341687462236, -44.210725113811414 2.508270384341543, -44.29270520250937 1.872449005199809 M-44.132857276581774 3.112197953150904 C-44.18836880862879 2.681661472586185, -44.243880340675794 2.2511249920214653, -44.29270520250937 1.872449005199809 M-44.29270520250937 1.872449005199809 C-44.312533422827904 1.5636084686872271, -44.33236164314644 1.254767932174645, -44.37279371591342 0.6250057626472781 M-44.29270520250937 1.872449005199809 C-44.32080822692924 1.4347217155073124, -44.34891125134911 0.9969944258148159, -44.37279371591342 0.6250057626472781 M-44.37279371591342 0.6250057626472781 C-44.37279371591342 0.3048419382393218, -44.37279371591342 -0.015321886168634502, -44.37279371591342 -0.6250057626472687 M-44.37279371591342 0.6250057626472781 C-44.37279371591342 0.2045789467785712, -44.37279371591342 -0.21584786909013576, -44.37279371591342 -0.6250057626472687 M-44.37279371591342 -0.6250057626472687 C-44.350677367537884 -0.9694857405912841, -44.32856101916235 -1.3139657185352995, -44.29270520250937 -1.8724490051997822 M-44.37279371591342 -0.6250057626472687 C-44.34689260182458 -1.028436521583944, -44.32099148773574 -1.4318672805206192, -44.29270520250937 -1.8724490051997822 M-44.29270520250937 -1.8724490051997822 C-44.24058895444472 -2.2766523336719695, -44.18847270638007 -2.680855662144157, -44.132857276581774 -3.112197953150895 M-44.29270520250937 -1.8724490051997822 C-44.230593240748796 -2.354177115220626, -44.16848127898822 -2.8359052252414694, -44.132857276581774 -3.112197953150895 M-44.132857276581774 -3.112197953150895 C-44.04787584863841 -3.548559624808906, -43.96289442069505 -3.9849212964669167, -43.89390678754556 -4.339158212148126 M-44.132857276581774 -3.112197953150895 C-44.04386318563416 -3.569163801259135, -43.954869094686536 -4.026129649367375, -43.89390678754556 -4.339158212148126 M-43.89390678754556 -4.339158212148126 C-43.80967696831303 -4.660363018316366, -43.72544714908049 -4.981567824484606, -43.57683563421489 -5.548287939305123 M-43.89390678754556 -4.339158212148126 C-43.81947231755261 -4.6230091063346155, -43.74503784755966 -4.906860000521106, -43.57683563421489 -5.548287939305123 M-43.57683563421489 -5.548287939305123 C-43.471953173084664 -5.864177201478543, -43.36707071195444 -6.180066463651962, -43.18294672997033 -6.734618561215485 M-43.57683563421489 -5.548287939305123 C-43.45782908541711 -5.9067167031654515, -43.33882253661933 -6.265145467025781, -43.18294672997033 -6.734618561215485 M-43.18294672997033 -6.734618561215485 C-43.02621623388877 -7.121745916714945, -42.8694857378072 -7.508873272214405, -42.71385864880834 -7.893275190886676 M-43.18294672997033 -6.734618561215485 C-43.08906883239663 -6.966498783228206, -42.99519093482293 -7.198379005240927, -42.71385864880834 -7.893275190886676 M-42.71385864880834 -7.893275190886676 C-42.57898684681407 -8.173339373522051, -42.444115044819796 -8.453403556157426, -42.171498974273504 -9.019496659696282 M-42.71385864880834 -7.893275190886676 C-42.587000970274545 -8.156697874681598, -42.46014329174075 -8.420120558476519, -42.171498974273504 -9.019496659696282 M-42.171498974273504 -9.019496659696282 C-41.96931344432715 -9.378497541621014, -41.767127914380794 -9.737498423545748, -41.55809637860425 -10.108655082055243 M-42.171498974273504 -9.019496659696282 C-41.92948921911338 -9.449209486128147, -41.68747946395326 -9.878922312560013, -41.55809637860425 -10.108655082055243 M-41.55809637860425 -10.108655082055243 C-41.3232766281796 -10.469401276639436, -41.08845687775495 -10.830147471223627, -40.87617146464064 -11.156274872382308 M-41.55809637860425 -10.108655082055243 C-41.287857298449055 -10.523814878527304, -41.01761821829387 -10.938974674999367, -40.87617146464064 -11.156274872382308 M-40.87617146464064 -11.156274872382308 C-40.589229112817996 -11.540751482838637, -40.302286760995344 -11.925228093294965, -40.12852640812659 -12.158051136245302 M-40.87617146464064 -11.156274872382308 C-40.71930790360215 -11.366457753609494, -40.56244434256366 -11.576640634836679, -40.12852640812659 -12.158051136245302 M-40.12852640812659 -12.158051136245302 C-39.918398253473136 -12.404879623331961, -39.70827009881969 -12.65170811041862, -39.31823344296866 -13.10986736009567 M-40.12852640812659 -12.158051136245302 C-39.94222491350162 -12.376891472687145, -39.75592341887665 -12.595731809128987, -39.31823344296866 -13.10986736009567 M-39.31823344296866 -13.10986736009567 C-39.03749842999833 -13.399749309760752, -38.756763417028 -13.689631259425832, -38.448622236767996 -14.007812326905677 M-39.31823344296866 -13.10986736009567 C-39.0370636320434 -13.400198274346794, -38.755893821118136 -13.690529188597916, -38.448622236767996 -14.007812326905677 M-38.448622236767996 -14.007812326905677 C-38.21651824852901 -14.218603027889317, -37.98441426029003 -14.429393728872958, -37.52326620850189 -14.848196188198107 M-38.448622236767996 -14.007812326905677 C-38.10748122481445 -14.317627567865326, -37.766340212860904 -14.627442808824975, -37.52326620850189 -14.848196188198107 M-37.52326620850189 -14.848196188198107 C-37.3117968214197 -15.016837396959424, -37.100327434337515 -15.185478605720743, -36.54596784457872 -15.627565626425149 M-37.52326620850189 -14.848196188198107 C-37.1985621898728 -15.107139002317982, -36.87385817124371 -15.366081816437857, -36.54596784457872 -15.627565626425149 M-36.54596784457872 -15.627565626425149 C-36.296884752738535 -15.801315208659604, -36.047801660898344 -15.97506479089406, -35.520743073605715 -16.342718045390885 M-36.54596784457872 -15.627565626425149 C-36.26590946903393 -15.822922225673516, -35.98585109348914 -16.018278824921882, -35.520743073605715 -16.342718045390885 M-35.520743073605715 -16.342718045390885 C-35.23391262830824 -16.51659634693301, -34.947082183010764 -16.69047464847513, -34.45180476407679 -16.99071473040609 M-35.520743073605715 -16.342718045390885 C-35.11998084760006 -16.585662461935765, -34.719218621594415 -16.82860687848065, -34.45180476407679 -16.99071473040609 M-34.45180476407679 -16.99071473040609 C-34.06670608029389 -17.19162046706815, -33.681607396510984 -17.392526203730213, -33.34354541279239 -17.56889292409717 M-34.45180476407679 -16.99071473040609 C-34.11255367085972 -17.167701808436743, -33.77330257764264 -17.344688886467395, -33.34354541279239 -17.56889292409717 M-33.34354541279239 -17.56889292409717 C-32.93323455488595 -17.750525369453204, -32.522923696979504 -17.932157814809237, -32.200519095147804 -18.07487676824742 M-33.34354541279239 -17.56889292409717 C-32.974869607949664 -17.73209476652186, -32.60619380310695 -17.895296608946555, -32.200519095147804 -18.07487676824742 M-32.200519095147804 -18.07487676824742 C-31.763339209078893 -18.235763007567346, -31.326159323009982 -18.39664924688727, -31.02742275146062 -18.506587066708033 M-32.200519095147804 -18.07487676824742 C-31.750825076510388 -18.24036832403193, -31.301131057872972 -18.40585987981644, -31.02742275146062 -18.506587066708033 M-31.02742275146062 -18.506587066708033 C-30.63232180566611 -18.62385095349266, -30.237220859871595 -18.741114840277284, -29.829076886235413 -18.862249829261067 M-31.02742275146062 -18.506587066708033 C-30.753999778499672 -18.58773756985637, -30.48057680553872 -18.668888073004705, -29.829076886235413 -18.862249829261067 M-29.829076886235413 -18.862249829261067 C-29.34244366161189 -18.973320687202822, -28.85581043698837 -19.084391545144577, -28.610405759676766 -19.140403561325773 M-29.829076886235413 -18.862249829261067 C-29.466989661420275 -18.944893875485164, -29.104902436605133 -19.027537921709257, -28.610405759676766 -19.140403561325773 M-28.610405759676766 -19.140403561325773 C-28.15131122185918 -19.214626405868806, -27.692216684041593 -19.28884925041184, -27.376417152847882 -19.3399052695533 M-28.610405759676766 -19.140403561325773 C-28.2609236564897 -19.196905117494868, -27.91144155330264 -19.253406673663967, -27.376417152847882 -19.3399052695533 M-27.376417152847882 -19.3399052695533 C-27.026721812002787 -19.373639958514445, -26.677026471157692 -19.407374647475592, -26.132181789623903 -19.45993515863156 M-27.376417152847882 -19.3399052695533 C-27.110883003587674 -19.365521029580893, -26.845348854327465 -19.39113678960849, -26.132181789623903 -19.45993515863156 M-26.132181789623903 -19.45993515863156 C-25.837671981168423 -19.46937951496016, -25.543162172712943 -19.47882387128876, -24.882812500000007 -19.5 M-26.132181789623903 -19.45993515863156 C-25.857892557949015 -19.468731080419772, -25.58360332627413 -19.47752700220798, -24.882812500000007 -19.5 M-24.882812500000007 -19.5 C-24.882812500000007 -19.5, -24.882812500000004 -19.5, -24.8828125 -19.5 M-24.882812500000007 -19.5 C-24.882812500000004 -19.5, -24.882812500000004 -19.5, -24.8828125 -19.5" stroke="#999" stroke-width="1.3" fill="none" stroke-dasharray="0 0" style=""></path></g><g class="label" style="" transform="translate(-32.0078125, -12)"><rect></rect><foreignObject width="64.015625" height="24"><div xmlns="http://www.w3.org/1999/xhtml" style="display: table-cell; white-space: nowrap; line-height: 1.5; max-width: 200px; text-align: center;"><span class="nodeLabel"><p>流程结束</p></span></div></foreignObject></g></g></g></g></g></svg>